SplineFontDB: 3.2
FontName: DyslexiaHebrew-Regular
FullName: Dyslexia-Hebrew Regular
FamilyName: Dyslexia-Hebrew
Weight: Regular
Copyright: Jake Shoag, 2025 and shared under the SIL Open Font License (OFL), version 1.1 <https://openfontlicense.org>.
UComments: "The Dyselx-Kriyah font is based on the design principles outlined by Christain Boer. It is my own creation. More information on it can be found at <https://dyslex-kriyah.com/dyslex-kriyah.html>."
Version: Version 1.000
ItalicAngle: 0
UnderlinePosition: -125
UnderlineWidth: 50
Ascent: 800
Descent: 200
InvalidEm: 0
sfntRevision: 0x00010000
LayerCount: 2
Layer: 0 0 "Back" 1
Layer: 1 0 "Fore" 0
XUID: [1021 534 -491386816 872]
StyleMap: 0x0040
FSType: 4
OS2Version: 4
OS2_WeightWidthSlopeOnly: 0
OS2_UseTypoMetrics: 1
CreationTime: 1721556625
ModificationTime: 1776363826
PfmFamily: 81
TTFWeight: 400
TTFWidth: 5
LineGap: 0
VLineGap: 0
Panose: 0 0 0 0 0 0 0 0 0 0
OS2TypoAscent: 1068
OS2TypoAOffset: 0
OS2TypoDescent: -292
OS2TypoDOffset: 0
OS2TypoLinegap: 0
OS2WinAscent: 1068
OS2WinAOffset: 0
OS2WinDescent: 292
OS2WinDOffset: 0
HheadAscent: 1068
HheadAOffset: 0
HheadDescent: -292
HheadDOffset: 0
OS2SubXSize: 650
OS2SubYSize: 600
OS2SubXOff: 0
OS2SubYOff: 75
OS2SupXSize: 650
OS2SupYSize: 600
OS2SupXOff: 0
OS2SupYOff: 350
OS2StrikeYSize: 50
OS2StrikeYPos: 300
OS2CapHeight: 714
OS2XHeight: 536
OS2Vendor: '    '
OS2CodePages: 00000021.00000000
OS2UnicodeRanges: 80000841.40000000.00000000.00000000
Lookup: 4 0 0 "Ligature Substitution lookup 0" { "Ligature Substitution lookup 0 subtable"  } []
Lookup: 4 8 0 "'dlig' Discretionary Ligatures lookup 1" { "'dlig' Discretionary Ligatures lookup 1 subtable"  } ['dlig' ('DFLT' <'dflt' > 'hebr' <'dflt' > 'latn' <'dflt' > ) ]
Lookup: 4 0 0 "'ccmp' Glyph Composition/Decomposition lookup 2" { "'ccmp' Glyph Composition/Decomposition lookup 2 subtable"  } ['ccmp' ('DFLT' <'dflt' > 'hebr' <'dflt' > 'latn' <'dflt' > ) ]

StartChar: uni0591
Encoding: 1425 1425 4
Width: 0
GlyphClass: 4
Flags: MW
HStem: -169 85<122.5 152.5>
VStem: 50 46<-237 -215 -237 -214 -237 -186.5> 113 48<-127 -84 -127 -84> 178 47<-237 -215 -215 -214 -237 -198.5>
AnchorPoint: "Anchor-1" 137 0 mark 0
LayerCount: 2
Fore
SplineSet
96 -237 m 1
 50 -237 l 1
 50 -214 l 2xd0
 50 -159 72 -134 113 -127 c 1
 113 -84 l 1
 161 -84 l 1
 161 -127 l 1xf0
 205 -134 225 -159 225 -214 c 2
 225 -237 l 1
 178 -237 l 1
 178 -215 l 2
 178 -182 167 -169 138 -169 c 0
 107 -169 96 -182 96 -215 c 2
 96 -237 l 1
EndSplineSet
EndChar

StartChar: uni0592
Encoding: 1426 1426 5
Width: 0
GlyphClass: 4
Flags: MW
HStem: 660 75<73 93 195 215> 767 75<134 154>
VStem: 50 67<684.5 710.5> 110 68<791.5 817.5> 172 67<684.5 710.5>
AnchorPoint: "Anchor-4" 206 536 mark 0
LayerCount: 2
Fore
SplineSet
144 767 m 0xd0
 124 767 110 779 110 804 c 0
 110 831 124 842 144 842 c 0
 164 842 178 831 178 804 c 0
 178 779 164 767 144 767 c 0xd0
83 660 m 0xe8
 63 660 50 672 50 697 c 0
 50 724 63 735 83 735 c 0
 103 735 117 724 117 697 c 0
 117 672 103 660 83 660 c 0xe8
205 660 m 0
 185 660 172 672 172 697 c 0
 172 724 185 735 205 735 c 0
 225 735 239 724 239 697 c 0
 239 672 225 660 205 660 c 0
EndSplineSet
EndChar

StartChar: uni0593
Encoding: 1427 1427 6
Width: 0
GlyphClass: 4
Flags: MW
HStem: 827 42<118 194>
VStem: 50 144<659 701 701 743 701 827>
AnchorPoint: "Anchor-3" 122 536 mark 0
LayerCount: 2
Fore
SplineSet
108 659 m 1
 50 659 l 1
 126 701 l 1
 50 743 l 1
 126 785 l 1
 50 827 l 1
 126 869 l 1
 194 869 l 1
 118 827 l 1
 194 785 l 1
 118 743 l 1
 194 701 l 1
 108 659 l 1
EndSplineSet
EndChar

StartChar: uni0594
Encoding: 1428 1428 7
Width: 0
GlyphClass: 4
Flags: MW
HStem: 660 75<74 94> 767 75<75 95>
VStem: 52 67<792.5 817.5 792.5 817.5>
AnchorPoint: "Anchor-3" 84 536 mark 0
LayerCount: 2
Fore
SplineSet
85 767 m 0
 65 767 52 778 52 805 c 0
 52 830 65 842 85 842 c 0
 105 842 119 830 119 805 c 0
 119 780 105 767 85 767 c 0
84 660 m 0
 64 660 50 671 50 698 c 0
 50 723 64 735 84 735 c 0
 104 735 118 723 118 698 c 0
 118 673 104 660 84 660 c 0
EndSplineSet
EndChar

StartChar: uni0595
Encoding: 1429 1429 8
Width: 0
GlyphClass: 4
Flags: MW
HStem: 660 75<50 184 164 184> 767 75<165 185>
VStem: 50 47<660 842> 142 67<792.5 817.5 792.5 817.5>
AnchorPoint: "Anchor-3" 129 536 mark 0
LayerCount: 2
Fore
SplineSet
97 660 m 1
 50 660 l 1
 50 842 l 1
 97 842 l 1
 97 660 l 1
175 767 m 0
 155 767 142 778 142 805 c 0
 142 830 155 842 175 842 c 0
 195 842 209 830 209 805 c 0
 209 780 195 767 175 767 c 0
174 660 m 0
 154 660 140 671 140 698 c 0
 140 723 154 735 174 735 c 0
 194 735 208 723 208 698 c 0
 208 673 194 660 174 660 c 0
EndSplineSet
EndChar

StartChar: uni0596
Encoding: 1430 1430 9
Width: 0
GlyphClass: 4
Flags: MW
HStem: -224 49<169.5 200 169.5 200>
VStem: 50 50<-112.5 -84 -112.5 -84>
AnchorPoint: "Anchor-1" 75 0 mark 0
LayerCount: 2
Fore
SplineSet
200 -175 m 1
 200 -224 l 1
 105 -224 50 -172 50 -84 c 1
 100 -84 l 1
 100 -141 139 -175 200 -175 c 1
EndSplineSet
EndChar

StartChar: uni0597
Encoding: 1431 1431 10
Width: 0
GlyphClass: 4
Flags: MW
HStem: 707 20G<50 50 190 190>
VStem: 50 140<727 727>
AnchorPoint: "Anchor-4" 155 536 mark 0
LayerCount: 2
Fore
SplineSet
190 727 m 1
 120 650 l 1
 50 727 l 1
 120 805 l 1
 190 727 l 1
EndSplineSet
EndChar

StartChar: uni0598
Encoding: 1432 1432 11
Width: 0
GlyphClass: 4
Flags: MW
HStem: 651 33<250 268.5 250 279.5> 758 33<107.5 126.5>
VStem: 50 36<713.5 734.5 713.5 743> 290 36<707.5 728.5>
AnchorPoint: "Anchor-3" 188 536 mark 0
LayerCount: 2
Fore
SplineSet
113 683 m 1
 100 650 l 1
 67 661 50 686 50 723 c 0
 50 763 78 791 118 791 c 0
 147 791 168 777 201 732 c 0
 226 697 240 684 260 684 c 0
 277 684 290 696 290 719 c 0
 290 738 281 751 263 758 c 1
 276 792 l 1
 309 779 326 754 326 719 c 0
 326 678 299 651 260 651 c 0
 229 651 207 665 175 709 c 0
 147 748 137 758 116 758 c 0
 99 758 86 746 86 723 c 0
 86 704 95 691 113 683 c 1
EndSplineSet
EndChar

StartChar: uni0599
Encoding: 1433 1433 12
Width: 0
GlyphClass: 4
Flags: MW
HStem: 741 50<50 82>
VStem: 150 50<650 678.5>
AnchorPoint: "Anchor-4" 200 536 mark 0
LayerCount: 2
Fore
SplineSet
200 650 m 1
 150 650 l 1
 150 707 114 741 50 741 c 1
 50 791 l 1
 145 791 200 741 200 650 c 1
EndSplineSet
EndChar

StartChar: uni059A
Encoding: 1434 1434 13
Width: 0
GlyphClass: 4
Flags: MW
HStem: -250 166<133 199 133 199>
VStem: 50 149<-250 -167>
AnchorPoint: "Anchor-1" 166 0 mark 0
LayerCount: 2
Fore
SplineSet
199 -250 m 1
 133 -250 l 1
 50 -167 l 1
 133 -84 l 1
 199 -84 l 1
 116 -167 l 1
 199 -250 l 1
EndSplineSet
EndChar

StartChar: uni059B
Encoding: 1435 1435 14
Width: 0
GlyphClass: 4
Flags: MW
HStem: -224 49<129 160.5 129 177.5> -138 95<138 159>
VStem: 112 73<-107.5 -72.5 -107.5 -72.5> 230 50<-112.5 -84>
AnchorPoint: "Anchor-1" 193 0 mark 0
LayerCount: 2
Fore
SplineSet
149 -138 m 0
 127 -138 112 -127 112 -90 c 0
 112 -55 127 -43 149 -43 c 0
 169 -43 185 -55 185 -90 c 0
 185 -125 169 -138 149 -138 c 0
129 -224 m 1
 129 -175 l 1
 192 -175 230 -141 230 -84 c 1
 280 -84 l 1
 280 -171 226 -224 129 -224 c 1
EndSplineSet
EndChar

StartChar: uni059C
Encoding: 1436 1436 15
Width: 0
GlyphClass: 4
Flags: MW
HStem: 741 50<169.5 200>
VStem: 50 50<650 679.5 650 694.5>
AnchorPoint: "Anchor-4" 75 536 mark 0
LayerCount: 2
Fore
SplineSet
100 650 m 1
 50 650 l 1
 50 739 107 791 200 791 c 1
 200 741 l 1
 139 741 100 709 100 650 c 1
EndSplineSet
EndChar

StartChar: uni059D
Encoding: 1437 1437 16
Width: 0
GlyphClass: 4
Flags: MW
HStem: 741 50<169.5 200>
VStem: 50 50<650 679.5 650 694.5>
AnchorPoint: "Anchor-3" 150 536 mark 0
LayerCount: 2
Fore
SplineSet
100 650 m 1
 50 650 l 1
 50 739 107 791 200 791 c 1
 200 741 l 1
 139 741 100 709 100 650 c 1
EndSplineSet
EndChar

StartChar: uni059E
Encoding: 1438 1438 17
Width: 0
GlyphClass: 4
Flags: MW
HStem: 741 50<170.5 201 321.5 352>
VStem: 50 51<650 679.5 650 694> 201 51<650 679.5 650 694.5>
AnchorPoint: "Anchor-3" 151 536 mark 0
LayerCount: 2
Fore
SplineSet
252 650 m 1
 201 650 l 1
 201 739 259 791 352 791 c 1
 352 741 l 1
 291 741 252 709 252 650 c 1
101 650 m 1
 50 650 l 1
 50 738 105 791 201 791 c 1
 201 741 l 1
 140 741 101 709 101 650 c 1
EndSplineSet
EndChar

StartChar: uni059F
Encoding: 1439 1439 18
Width: 0
GlyphClass: 4
Flags: MW
HStem: 678 46<132.5 152.5 401.5 422.5> 818 46<132.5 157 397 421.5>
VStem: 50 47<758.5 783.5 758.5 797> 191 47<762.5 784.5> 316 47<762.5 784.5 758.5 797> 457 47<758.5 783.5>
AnchorPoint: "Anchor-3" 277 536 mark 0
LayerCount: 2
Fore
SplineSet
364 688 m 1
 326 650 l 1
 290 686 l 1
 329 725 l 1
 321 738 316 754 316 771 c 0
 316 823 358 864 410 864 c 0
 462 864 504 824 504 771 c 0
 504 719 463 678 410 678 c 0
 393 678 377 681 364 688 c 1
264 686 m 1
 228 650 l 1
 190 688 l 1
 177 681 161 678 144 678 c 0
 91 678 50 719 50 771 c 0
 50 823 92 864 144 864 c 0
 196 864 238 823 238 771 c 0
 238 754 233 738 225 725 c 1
 264 686 l 1
145 724 m 0
 170 724 191 746 191 771 c 0
 191 798 169 818 145 818 c 0
 120 818 97 796 97 771 c 0
 97 746 120 724 145 724 c 0
409 724 m 0
 436 724 457 746 457 771 c 0
 457 796 434 818 409 818 c 0
 385 818 363 798 363 771 c 0
 363 746 384 724 409 724 c 0
EndSplineSet
EndChar

StartChar: uni05A0
Encoding: 1440 1440 19
Width: 0
GlyphClass: 4
Flags: MW
HStem: 678 46<161.5 182.5 156.5 196.5> 818 46<157 181.5>
VStem: 76 47<762.5 784.5 758.5 797> 217 47<758.5 783.5>
AnchorPoint: "Anchor-3" 157 536 mark 0
LayerCount: 2
Fore
SplineSet
124 688 m 1
 86 650 l 1
 50 686 l 1
 89 725 l 1
 81 738 76 754 76 771 c 0
 76 823 118 864 170 864 c 0
 222 864 264 824 264 771 c 0
 264 719 223 678 170 678 c 0
 153 678 139 681 124 688 c 1
169 724 m 0
 196 724 217 746 217 771 c 0
 217 796 194 818 169 818 c 0
 145 818 123 798 123 771 c 0
 123 746 144 724 169 724 c 0
EndSplineSet
EndChar

StartChar: uni05A1
Encoding: 1441 1441 20
Width: 0
GlyphClass: 4
Flags: MW
HStem: 650 153<50 96 50 96> 692 42<117.5 130.5 111.5 149.5>
VStem: 50 46<650 697 740 803> 155 47<780 803 753.5 803>
AnchorPoint: "Anchor-3" 126 536 mark 0
LayerCount: 2
Fore
SplineSet
96 650 m 1xb0
 50 650 l 1
 50 803 l 1
 96 803 l 1xb0
 96 740 l 1
 100 736 107 734 116 734 c 0
 145 734 155 747 155 780 c 2x70
 155 803 l 1
 202 803 l 1xb0
 202 780 l 2
 202 727 177 692 122 692 c 0
 113 692 103 693 96 697 c 1x70
 96 650 l 1xb0
EndSplineSet
EndChar

StartChar: uni05A2
Encoding: 1442 1442 21
Width: 0
GlyphClass: 4
Flags: MW
HStem: -237 84<122.5 152.5 122.5 161 113 152.5>
VStem: 50 46<-107 -84 -123 -84> 113 48<-237 -195 -237 -195> 178 47<-107 -84 -134.5 -84>
AnchorPoint: "Anchor-1" 138 0 mark 0
LayerCount: 2
Fore
SplineSet
161 -237 m 1
 113 -237 l 1
 113 -195 l 1xf0
 73 -188 50 -162 50 -107 c 2
 50 -84 l 1
 96 -84 l 1
 96 -107 l 2
 96 -139 107 -153 138 -153 c 0
 167 -153 178 -139 178 -107 c 2
 178 -84 l 1
 225 -84 l 1
 225 -107 l 2xd0
 225 -162 204 -188 161 -195 c 1
 161 -237 l 1
EndSplineSet
EndChar

StartChar: uni05A3
Encoding: 1443 1443 22
Width: 0
GlyphClass: 4
Flags: MW
HStem: -228 49<50 150 50 200 50 150>
VStem: 150 50<-179 -84>
AnchorPoint: "Anchor-1" 200 0 mark 0
LayerCount: 2
Fore
SplineSet
200 -228 m 1
 50 -228 l 1
 50 -179 l 1
 150 -179 l 1
 150 -84 l 1
 200 -84 l 1
 200 -228 l 1
EndSplineSet
EndChar

StartChar: uni05A4
Encoding: 1444 1444 23
Width: 0
GlyphClass: 4
Flags: MW
HStem: -250 166<133 200 133 200>
VStem: 50 150<-250 -167>
AnchorPoint: "Anchor-1" 167 0 mark 0
LayerCount: 2
Fore
SplineSet
200 -250 m 1
 133 -250 l 1
 50 -167 l 1
 133 -84 l 1
 200 -84 l 1
 117 -167 l 1
 200 -250 l 1
EndSplineSet
EndChar

StartChar: uni05A5
Encoding: 1445 1445 24
Width: 0
GlyphClass: 4
Flags: MW
HStem: -224 49<50 81.5 50 98>
VStem: 150 50<-112 -84>
AnchorPoint: "Anchor-1" 200 0 mark 0
LayerCount: 2
Fore
SplineSet
50 -224 m 1
 50 -175 l 1
 113 -175 150 -140 150 -84 c 1
 200 -84 l 1
 200 -172 146 -224 50 -224 c 1
EndSplineSet
EndChar

StartChar: uni05A6
Encoding: 1446 1446 25
Width: 0
GlyphClass: 4
Flags: MW
HStem: -224 49<50 81.5 50 98 201 232.5>
VStem: 150 51<-112 -84> 301 51<-112 -84>
AnchorPoint: "Anchor-1" 251 0 mark 0
LayerCount: 2
Fore
SplineSet
201 -224 m 1
 201 -175 l 1
 264 -175 301 -140 301 -84 c 1
 352 -84 l 1
 352 -171 298 -224 201 -224 c 1
50 -224 m 1
 50 -175 l 1
 113 -175 150 -140 150 -84 c 1
 201 -84 l 1
 201 -172 146 -224 50 -224 c 1
EndSplineSet
EndChar

StartChar: uni05A7
Encoding: 1447 1447 26
Width: 0
GlyphClass: 4
Flags: MW
HStem: -240 174<64 182>
VStem: 50 145<-216 -90>
AnchorPoint: "Anchor-1" 182 0 mark 0
LayerCount: 2
Fore
SplineSet
195 -216 m 1
 64 -240 l 1
 64 -203 l 1
 129 -193 l 1
 50 -90 l 1
 182 -66 l 1
 182 -101 l 1
 116 -113 l 1
 195 -216 l 1
EndSplineSet
EndChar

StartChar: uni05A8
Encoding: 1448 1448 27
Width: 0
GlyphClass: 4
Flags: MW
HStem: 741 50<50 82>
VStem: 150 50<650 678.5>
AnchorPoint: "Anchor-4" 175 536 mark 0
LayerCount: 2
Fore
SplineSet
200 650 m 1
 150 650 l 1
 150 707 114 741 50 741 c 1
 50 791 l 1
 145 791 200 741 200 650 c 1
EndSplineSet
EndChar

StartChar: uni05A9
Encoding: 1449 1449 28
Width: 0
GlyphClass: 4
Flags: MW
HStem: 678 46<132.5 152.5> 818 46<132.5 157>
VStem: 50 47<758.5 783.5 758.5 797> 191 47<762.5 784.5>
AnchorPoint: "Anchor-4" 144 536 mark 0
LayerCount: 2
Fore
SplineSet
264 686 m 1
 228 650 l 1
 190 688 l 1
 177 681 161 678 144 678 c 0
 91 678 50 719 50 771 c 0
 50 823 92 864 144 864 c 0
 196 864 238 823 238 771 c 0
 238 754 233 738 225 725 c 1
 264 686 l 1
145 724 m 0
 170 724 191 746 191 771 c 0
 191 798 169 818 145 818 c 0
 120 818 97 796 97 771 c 0
 97 746 120 724 145 724 c 0
EndSplineSet
EndChar

StartChar: uni05AA
Encoding: 1450 1450 29
Width: 0
GlyphClass: 4
Flags: MW
HStem: -237 84<122.5 152.5 122.5 161 113 152.5>
VStem: 50 46<-107 -84 -123 -84> 113 48<-237 -195 -237 -195> 178 47<-107 -84 -134.5 -84>
AnchorPoint: "Anchor-1" 138 0 mark 0
LayerCount: 2
Fore
SplineSet
161 -237 m 1
 113 -237 l 1
 113 -195 l 1xf0
 73 -188 50 -162 50 -107 c 2
 50 -84 l 1
 96 -84 l 1
 96 -107 l 2
 96 -139 107 -153 138 -153 c 0
 167 -153 178 -139 178 -107 c 2
 178 -84 l 1
 225 -84 l 1
 225 -107 l 2xd0
 225 -162 204 -188 161 -195 c 1
 161 -237 l 1
EndSplineSet
EndChar

StartChar: uni05AB
Encoding: 1451 1451 30
Width: 0
GlyphClass: 4
Flags: MW
HStem: 650 166<133 200 133 200> 713 20G<50 50 117 117>
VStem: 50 150<650 733>
AnchorPoint: "Anchor-3" 125 536 mark 0
LayerCount: 2
Fore
SplineSet
200 650 m 1xa0
 133 650 l 1xa0
 50 733 l 1x60
 133 816 l 1
 200 816 l 1xa0
 117 733 l 1x60
 200 650 l 1xa0
EndSplineSet
EndChar

StartChar: uni05AC
Encoding: 1452 1452 31
Width: 0
GlyphClass: 4
Flags: MW
HStem: 650 49<50 150 50 200 50 150>
VStem: 150 50<699 794>
AnchorPoint: "Anchor-3" 125 536 mark 0
LayerCount: 2
Fore
SplineSet
200 650 m 1
 50 650 l 1
 50 699 l 1
 150 699 l 1
 150 794 l 1
 200 794 l 1
 200 650 l 1
EndSplineSet
EndChar

StartChar: uni05AD
Encoding: 1453 1453 32
Width: 0
GlyphClass: 4
Flags: MW
HStem: -240 49<169.5 200 169.5 200>
VStem: 50 50<-128.5 -100 -128.5 -100>
AnchorPoint: "Anchor-1" 75 0 mark 0
LayerCount: 2
Fore
SplineSet
200 -191 m 1
 200 -240 l 1
 105 -240 50 -188 50 -100 c 1
 100 -100 l 1
 100 -157 139 -191 200 -191 c 1
EndSplineSet
EndChar

StartChar: uni05AE
Encoding: 1454 1454 33
Width: 0
GlyphClass: 4
Flags: MW
HStem: 651 33<250 268.5 250 279.5> 758 33<107.5 126.5>
VStem: 50 36<713.5 734.5 713.5 743> 290 36<707.5 728.5>
AnchorPoint: "Anchor-3" 188 536 mark 0
LayerCount: 2
Fore
SplineSet
113 683 m 1
 100 650 l 1
 67 661 50 686 50 723 c 0
 50 763 78 791 118 791 c 0
 147 791 168 777 201 732 c 0
 226 697 240 684 260 684 c 0
 277 684 290 696 290 719 c 0
 290 738 281 751 263 758 c 1
 276 792 l 1
 309 779 326 754 326 719 c 0
 326 678 299 651 260 651 c 0
 229 651 207 665 175 709 c 0
 147 748 137 758 116 758 c 0
 99 758 86 746 86 723 c 0
 86 704 95 691 113 683 c 1
EndSplineSet
EndChar

StartChar: uni05AF
Encoding: 1455 1455 34
Width: 0
GlyphClass: 4
Flags: MW
HStem: 650 43<128.5 155.5 128.5 168> 791 43<129.5 155.5>
VStem: 50 43<728.5 755.5 728.5 767> 191 43<728.5 755.5>
AnchorPoint: "Anchor-3" 142 536 mark 0
LayerCount: 2
Fore
SplineSet
142 650 m 0
 90 650 50 691 50 742 c 0
 50 792 92 834 142 834 c 0
 192 834 234 792 234 742 c 0
 234 691 194 650 142 650 c 0
142 693 m 0
 169 693 191 715 191 742 c 0
 191 769 169 791 142 791 c 0
 117 791 93 769 93 742 c 0
 93 715 115 693 142 693 c 0
EndSplineSet
EndChar

StartChar: uni05B0
Encoding: 1456 1456 35
Width: 0
GlyphClass: 4
Flags: MW
HStem: -272 95<74.5 94.5> -145 95<74.5 94.5>
VStem: 50 70<-241.5 -206.5 -241.5 -206.5 -114.5 -79.5>
AnchorPoint: "Anchor-6" 86 0 mark 0
AnchorPoint: "Anchor-0" 86 0 mark 0
LayerCount: 2
Fore
SplineSet
85 -145 m 0
 64 -145 50 -134 50 -97 c 0
 50 -62 64 -50 85 -50 c 0
 104 -50 120 -62 120 -97 c 0
 120 -132 104 -145 85 -145 c 0
85 -272 m 0
 64 -272 50 -261 50 -224 c 0
 50 -189 64 -177 85 -177 c 0
 104 -177 120 -189 120 -224 c 0
 120 -259 104 -272 85 -272 c 0
EndSplineSet
EndChar

StartChar: uni05B1
Encoding: 1457 1457 36
Width: 0
GlyphClass: 4
Flags: MW
HStem: -262 95<134.5 154.5 292.5 312.5> -155 95<72.5 92.5 195.5 215.5 292.5 312.5>
VStem: 48 70<-124.5 -89.5 -124.5 -89.5> 109 70<-231.5 -196.5 -231.5 -196.5> 171 70<-124.5 -89.5 -124.5 -89.5> 268 70<-231.5 -196.5 -231.5 -196.5 -124.5 -89.5>
AnchorPoint: "Anchor-6" 193 0 mark 0
AnchorPoint: "Anchor-0" 193 0 mark 0
LayerCount: 2
Fore
SplineSet
83 -155 m 0x64
 62 -155 48 -144 48 -107 c 0
 48 -72 62 -60 83 -60 c 0
 102 -60 118 -72 118 -107 c 0
 118 -142 102 -155 83 -155 c 0x64
206 -155 m 0x6c
 185 -155 171 -144 171 -107 c 0
 171 -72 185 -60 206 -60 c 0
 225 -60 241 -72 241 -107 c 0
 241 -142 225 -155 206 -155 c 0x6c
303 -155 m 0x64
 282 -155 268 -144 268 -107 c 0
 268 -72 282 -60 303 -60 c 0
 322 -60 338 -72 338 -107 c 0
 338 -142 322 -155 303 -155 c 0x64
303 -262 m 0xd4
 282 -262 268 -251 268 -214 c 0
 268 -179 282 -167 303 -167 c 0
 322 -167 338 -179 338 -214 c 0
 338 -249 322 -262 303 -262 c 0xd4
145 -262 m 0
 124 -262 109 -251 109 -214 c 0
 109 -179 124 -167 145 -167 c 0
 164 -167 179 -179 179 -214 c 0
 179 -249 164 -262 145 -262 c 0
EndSplineSet
EndChar

StartChar: uni05B2
Encoding: 1458 1458 37
Width: 0
GlyphClass: 4
Flags: MW
HStem: -272 95<284.5 304.5> -145 95<284.5 304.5> -131 47<50 228 50 228>
VStem: 50 178<-131 -84 -131 -84> 260 70<-241.5 -206.5 -241.5 -206.5 -114.5 -79.5>
AnchorPoint: "Anchor-6" 189 0 mark 0
AnchorPoint: "Anchor-0" 189 0 mark 0
LayerCount: 2
Fore
SplineSet
295 -145 m 0xd8
 274 -145 260 -134 260 -97 c 0
 260 -62 274 -50 295 -50 c 0
 314 -50 330 -62 330 -97 c 0
 330 -132 314 -145 295 -145 c 0xd8
228 -131 m 1xb8
 50 -131 l 1
 50 -84 l 1
 228 -84 l 1
 228 -131 l 1xb8
295 -272 m 0
 274 -272 260 -261 260 -224 c 0
 260 -189 274 -177 295 -177 c 0
 314 -177 330 -189 330 -224 c 0
 330 -259 314 -272 295 -272 c 0
EndSplineSet
EndChar

StartChar: uni05B3
Encoding: 1459 1459 38
Width: 0
GlyphClass: 4
Flags: MW
HStem: -272 95<281.5 301.5> -145 95<281.5 301.5> -131 47<50 116 50 228 163 163 163 228>
VStem: 116 47<-238 -131> 257 70<-241.5 -206.5 -241.5 -206.5 -114.5 -79.5>
AnchorPoint: "Anchor-6" 189 0 mark 0
AnchorPoint: "Anchor-0" 189 0 mark 0
LayerCount: 2
Fore
SplineSet
292 -145 m 0xd8
 271 -145 257 -134 257 -97 c 0
 257 -62 271 -50 292 -50 c 0
 311 -50 327 -62 327 -97 c 0
 327 -132 311 -145 292 -145 c 0xd8
163 -238 m 1
 116 -238 l 1
 116 -131 l 1
 50 -131 l 1
 50 -84 l 1
 228 -84 l 1
 228 -131 l 1
 163 -131 l 1xb8
 163 -238 l 1
292 -272 m 0
 271 -272 257 -261 257 -224 c 0
 257 -189 271 -177 292 -177 c 0
 311 -177 327 -189 327 -224 c 0
 327 -259 311 -272 292 -272 c 0
EndSplineSet
EndChar

StartChar: uni05B4
Encoding: 1460 1460 39
Width: 0
GlyphClass: 4
Flags: MW
HStem: -155 95<73.5 93.5>
VStem: 49 70<-124.5 -89.5 -124.5 -89.5>
AnchorPoint: "Anchor-6" 84 0 mark 0
AnchorPoint: "Anchor-0" 84 0 mark 0
LayerCount: 2
Fore
SplineSet
84 -155 m 0
 63 -155 49 -144 49 -107 c 0
 49 -72 63 -60 84 -60 c 0
 103 -60 119 -72 119 -107 c 0
 119 -142 103 -155 84 -155 c 0
EndSplineSet
EndChar

StartChar: uni05B5
Encoding: 1461 1461 40
Width: 0
GlyphClass: 4
Flags: MW
HStem: -155 95<72.5 92.5 195.5 215.5>
VStem: 48 70<-124.5 -89.5 -124.5 -89.5> 170 70<-124.5 -89.5 -124.5 -89.5>
AnchorPoint: "Anchor-6" 145 0 mark 0
AnchorPoint: "Anchor-0" 145 0 mark 0
LayerCount: 2
Fore
SplineSet
83 -155 m 0
 62 -155 48 -144 48 -107 c 0
 48 -72 62 -60 83 -60 c 0
 102 -60 118 -72 118 -107 c 0
 118 -142 102 -155 83 -155 c 0
206 -155 m 0
 185 -155 170 -144 170 -107 c 0
 170 -72 185 -60 206 -60 c 0
 225 -60 240 -72 240 -107 c 0
 240 -142 225 -155 206 -155 c 0
EndSplineSet
EndChar

StartChar: uni05B6
Encoding: 1462 1462 41
Width: 0
GlyphClass: 4
Flags: MW
HStem: -262 95<134.5 154.5> -155 95<72.5 92.5 195.5 215.5>
VStem: 48 70<-124.5 -89.5 -124.5 -89.5> 109 70<-231.5 -196.5 -231.5 -196.5> 171 70<-124.5 -89.5 -124.5 -89.5>
AnchorPoint: "Anchor-6" 145 0 mark 0
AnchorPoint: "Anchor-0" 145 0 mark 0
LayerCount: 2
Fore
SplineSet
83 -155 m 0x68
 62 -155 48 -144 48 -107 c 0
 48 -72 62 -60 83 -60 c 0
 102 -60 118 -72 118 -107 c 0
 118 -142 102 -155 83 -155 c 0x68
206 -155 m 0
 185 -155 171 -144 171 -107 c 0
 171 -72 185 -60 206 -60 c 0
 225 -60 241 -72 241 -107 c 0
 241 -142 225 -155 206 -155 c 0
145 -262 m 0xd0
 124 -262 109 -251 109 -214 c 0
 109 -179 124 -167 145 -167 c 0
 164 -167 179 -179 179 -214 c 0
 179 -249 164 -262 145 -262 c 0xd0
EndSplineSet
EndChar

StartChar: uni05B7
Encoding: 1463 1463 42
Width: 0
GlyphClass: 4
Flags: MW
HStem: -131 47<50 228 50 228>
VStem: 50 178<-131 -84 -131 -84>
AnchorPoint: "Anchor-6" 139 0 mark 0
AnchorPoint: "Anchor-0" 139 0 mark 0
LayerCount: 2
Fore
SplineSet
228 -131 m 1
 50 -131 l 1
 50 -84 l 1
 228 -84 l 1
 228 -131 l 1
EndSplineSet
EndChar

StartChar: uni05B8
Encoding: 1464 1464 43
Width: 0
GlyphClass: 4
Flags: MW
HStem: -131 47<50 96 50 188 143 143 143 188>
VStem: 96 47<-194 -131>
AnchorPoint: "Anchor-6" 119 0 mark 0
AnchorPoint: "Anchor-0" 119 0 mark 0
LayerCount: 2
Fore
SplineSet
143 -194 m 1
 96 -194 l 1
 96 -131 l 1
 50 -131 l 1
 50 -84 l 1
 188 -84 l 1
 188 -131 l 1
 143 -131 l 1
 143 -194 l 1
EndSplineSet
EndChar

StartChar: uni05B9
Encoding: 1465 1465 44
Width: 0
GlyphClass: 4
Flags: MW
HStem: 660 75<-10 10>
VStem: -33 66<685.5 710.5 685.5 710.5>
AnchorPoint: "Anchor-4" 0 536 mark 0
LayerCount: 2
Fore
SplineSet
0 660 m 0
 -20 660 -33 671 -33 698 c 0
 -33 723 -20 735 0 735 c 0
 20 735 33 723 33 698 c 0
 33 673 20 660 0 660 c 0
EndSplineSet
EndChar

StartChar: uni05BA
Encoding: 1466 1466 45
Width: 0
GlyphClass: 4
Flags: MW
HStem: 660 75<-140 -120>
VStem: -163 66<685.5 710.5 685.5 710.5>
AnchorPoint: "Anchor-4" 0 536 mark 0
LayerCount: 2
Fore
SplineSet
-130 660 m 0
 -150 660 -163 671 -163 698 c 0
 -163 723 -150 735 -130 735 c 0
 -110 735 -97 723 -97 698 c 0
 -97 673 -110 660 -130 660 c 0
EndSplineSet
EndChar

StartChar: uni05BB
Encoding: 1467 1467 46
Width: 0
GlyphClass: 4
Flags: MW
HStem: -272 95<234.5 254.5> -209 95<153.5 173.5> -145 95<72.5 92.5>
VStem: 48 70<-114.5 -79.5 -114.5 -79.5> 129 70<-178.5 -143.5 -178.5 -143.5> 210 70<-241.5 -206.5 -241.5 -206.5>
CounterMasks: 1 1c
AnchorPoint: "Anchor-6" 165 0 mark 0
AnchorPoint: "Anchor-0" 165 0 mark 0
LayerCount: 2
Fore
SplineSet
83 -145 m 0xb4
 62 -145 48 -134 48 -97 c 0
 48 -62 62 -50 83 -50 c 0
 102 -50 118 -62 118 -97 c 0
 118 -132 102 -145 83 -145 c 0xb4
164 -209 m 0x5c
 143 -209 129 -198 129 -161 c 0
 129 -126 143 -114 164 -114 c 0
 183 -114 199 -126 199 -161 c 0
 199 -196 183 -209 164 -209 c 0x5c
245 -272 m 0xb4
 224 -272 210 -261 210 -224 c 0
 210 -189 224 -177 245 -177 c 0
 264 -177 280 -189 280 -224 c 0
 280 -259 264 -272 245 -272 c 0xb4
EndSplineSet
EndChar

StartChar: uni05BC
Encoding: 1468 1468 47
Width: 0
GlyphClass: 4
Flags: MW
HStem: 259 95<73.5 93.5>
VStem: 49 70<289.5 324.5 289.5 324.5>
AnchorPoint: "Anchor-2" 84 300 mark 0
LayerCount: 2
Fore
SplineSet
84 259 m 0
 63 259 49 270 49 307 c 0
 49 342 63 354 84 354 c 0
 103 354 119 342 119 307 c 0
 119 272 103 259 84 259 c 0
EndSplineSet
EndChar

StartChar: uni05BD
Encoding: 1469 1469 48
Width: 0
GlyphClass: 4
Flags: MW
HStem: -252 182<50 97 50 97>
VStem: 50 47<-252 -70>
AnchorPoint: "Anchor-6" 74 0 mark 0
AnchorPoint: "Anchor-0" 74 0 mark 0
LayerCount: 2
Fore
SplineSet
97 -252 m 1
 50 -252 l 1
 50 -70 l 1
 97 -70 l 1
 97 -252 l 1
EndSplineSet
EndChar

StartChar: uni05BE
Encoding: 1470 1470 49
Width: 374
GlyphClass: 2
Flags: MW
HStem: 514 78<30 272 30 272>
VStem: 30 242<514 592 514 592>
LayerCount: 2
Fore
SplineSet
272 514 m 1
 30 514 l 1
 30 592 l 1
 272 592 l 1
 272 514 l 1
EndSplineSet
EndChar

StartChar: uni05BF
Encoding: 1471 1471 50
Width: 0
GlyphClass: 4
Flags: MW
HStem: 674 47<50 248 50 248>
VStem: 50 198<674 721 674 721>
AnchorPoint: "Anchor-3" 149 536 mark 0
LayerCount: 2
Fore
SplineSet
248 674 m 1
 50 674 l 1
 50 721 l 1
 248 721 l 1
 248 674 l 1
EndSplineSet
EndChar

StartChar: uni05C0
Encoding: 1472 1472 51
Width: 661
GlyphClass: 2
Flags: MW
HStem: -241 1001<247 247 247 286 213 320>
VStem: 230 73
LayerCount: 2
Fore
SplineSet
247 -241 m 1
 213 760 l 1
 286 760 l 1
 320 -241 l 1
 247 -241 l 1
EndSplineSet
EndChar

StartChar: uni05C1
Encoding: 1473 1473 52
Width: 0
GlyphClass: 4
Flags: MW
HStem: 660 75<73 93>
VStem: 50 67<685.5 710.5 685.5 710.5>
AnchorPoint: "Anchor-5" 84 536 mark 0
LayerCount: 2
Fore
SplineSet
83 660 m 0
 63 660 50 671 50 698 c 0
 50 723 63 735 83 735 c 0
 103 735 117 723 117 698 c 0
 117 673 103 660 83 660 c 0
EndSplineSet
EndChar

StartChar: uni05C2
Encoding: 1474 1474 53
Width: 0
GlyphClass: 4
Flags: MW
HStem: 660 75<-10 10>
VStem: -33 66<685.5 710.5 685.5 710.5>
AnchorPoint: "Anchor-4" -99 536 mark 0
LayerCount: 2
Fore
SplineSet
0 660 m 0
 -20 660 -33 671 -33 698 c 0
 -33 723 -20 735 0 735 c 0
 20 735 33 723 33 698 c 0
 33 673 20 660 0 660 c 0
EndSplineSet
EndChar

StartChar: uni05C3
Encoding: 1475 1475 54
Width: 321
GlyphClass: 2
Flags: MW
HStem: -14 135<116.5 150.5> 414 136<116.5 150.5>
VStem: 72 124<30 78.5 458 507.5>
LayerCount: 2
Fore
SplineSet
72 482 m 0
 72 533 100 550 133 550 c 0
 168 550 196 533 196 482 c 0
 196 434 168 414 133 414 c 0
 100 414 72 434 72 482 c 0
72 54 m 0
 72 103 100 121 133 121 c 0
 168 121 196 103 196 54 c 0
 196 6 168 -14 133 -14 c 0
 100 -14 72 6 72 54 c 0
EndSplineSet
EndChar

StartChar: uni05C4
Encoding: 1476 1476 55
Width: 0
GlyphClass: 4
Flags: MW
HStem: 660 75<73 93>
VStem: 50 66<685.5 710.5 685.5 710.5>
AnchorPoint: "Anchor-3" 84 536 mark 0
LayerCount: 2
Fore
SplineSet
83 660 m 0
 63 660 50 671 50 698 c 0
 50 723 63 735 83 735 c 0
 103 735 116 723 116 698 c 0
 116 673 103 660 83 660 c 0
EndSplineSet
EndChar

StartChar: uni05C5
Encoding: 1477 1477 56
Width: 0
GlyphClass: 4
Flags: MW
HStem: -155 95<75.5 91.5 71.5 95.5>
VStem: 50 67<4.29497e+09 4.29497e+09>
AnchorPoint: "Anchor-6" 84 0 mark 0
AnchorPoint: "Anchor-0" 84 0 mark 0
LayerCount: 2
Fore
SplineSet
86 -155 m 0
 65 -155 51 -144 50 -107 c 0
 49 -72 61 -60 82 -60 c 0
 101 -60 116 -72 117 -107 c 0
 118 -142 105 -155 86 -155 c 0
EndSplineSet
EndChar

StartChar: uni05C6
Encoding: 1478 1478 57
Width: 488
GlyphClass: 2
Flags: MW
HStem: 0 132<63 363 177 363 177 367> 504 83
VStem: 61 106
LayerCount: 2
Fore
SplineSet
63 0 m 1
 61 456 l 2
 61 555 111 597 181 592 c 2
 313 582 l 1
 316 499 l 1
 210 509 l 2
 171 513 154 492 157 445 c 2
 177 132 l 1
 363 132 l 1
 367 0 l 1
 63 0 l 1
EndSplineSet
EndChar

StartChar: uni05C7
Encoding: 1479 1479 58
Width: 0
GlyphClass: 4
Flags: MW
HStem: -131 47<50 116 50 228 163 163 163 228>
VStem: 116 47<-214 -131>
AnchorPoint: "Anchor-6" 139 0 mark 0
AnchorPoint: "Anchor-0" 139 0 mark 0
LayerCount: 2
Fore
SplineSet
163 -214 m 1
 116 -214 l 1
 116 -131 l 1
 50 -131 l 1
 50 -84 l 1
 228 -84 l 1
 228 -131 l 1
 163 -131 l 1
 163 -214 l 1
EndSplineSet
EndChar

StartChar: uni05D0
Encoding: 1488 1488 59
Width: 727
GlyphClass: 2
Flags: MW
HStem: 0 21G<39 161 39 39 437 572 437 437>
VStem: 42 102 434 89
AnchorPoint: "Anchor-4" 0 536 basechar 0
AnchorPoint: "Anchor-3" 304 536 basechar 0
AnchorPoint: "Anchor-2" 250 158 basechar 0
AnchorPoint: "Anchor-1" 101 0 basechar 0
AnchorPoint: "Anchor-0" 298 0 basechar 0
LayerCount: 2
Fore
SplineSet
33 592 m 1
 131 592 l 1
 375 265 l 1
 420 295 440 353 437 440 c 2
 431 592 l 1
 521 592 l 1
 526 446 l 2
 531 329 503 229 440 178 c 1
 572 0 l 1
 437 0 l 1
 211 331 l 1
 163 310 136 250 144 175 c 2
 161 0 l 1
 39 0 l 1
 45 193 l 2
 49 294 83 375 160 407 c 1
 33 592 l 1
EndSplineSet
EndChar

StartChar: uni05D1
Encoding: 1489 1489 60
Width: 662
GlyphClass: 2
Flags: MW
HStem: 0 132<30 295 406 523 30 30> 514 83
VStem: 331 97<349.5 431.5>
AnchorPoint: "Anchor-4" 0 536 basechar 0
AnchorPoint: "Anchor-3" 217 536 basechar 0
AnchorPoint: "Anchor-2" 190 300 basechar 0
AnchorPoint: "Anchor-1" 30 0 basechar 0
AnchorPoint: "Anchor-0" 274 0 basechar 0
LayerCount: 2
Fore
SplineSet
527 0 m 1
 30 0 l 1
 26 132 l 1
 295 132 l 1
 317 207 331 278 331 385 c 0
 331 478 287 505 214 509 c 2
 12 519 l 1
 9 602 l 1
 217 592 l 2
 353 586 428 536 428 404 c 0
 428 295 417 214 406 132 c 1
 523 132 l 1
 527 0 l 1
EndSplineSet
PairPos2: "'kern' Horizontal Kerning in Hebrew lookup 0 per glyph data 1" uni05E8 dx=0 dy=0 dh=0 dv=0 dx=0 dy=0 dh=0 dv=0
PairPos2: "'kern' Horizontal Kerning in Hebrew lookup 0 per glyph data 1" uni05E4 dx=-20 dy=0 dh=-20 dv=0 dx=0 dy=0 dh=0 dv=0
PairPos2: "'kern' Horizontal Kerning in Hebrew lookup 0 per glyph data 1" uni05E1 dx=0 dy=0 dh=0 dv=0 dx=0 dy=0 dh=0 dv=0
PairPos2: "'kern' Horizontal Kerning in Hebrew lookup 0 per glyph data 1" uni05DA dx=0 dy=0 dh=0 dv=0 dx=0 dy=0 dh=0 dv=0
PairPos2: "'kern' Horizontal Kerning in Hebrew lookup 0 per glyph data 1" uni05D9 dx=-20 dy=0 dh=-20 dv=0 dx=0 dy=0 dh=0 dv=0
PairPos2: "'kern' Horizontal Kerning in Hebrew lookup 0 per glyph data 1" uni05D3 dx=0 dy=0 dh=0 dv=0 dx=0 dy=0 dh=0 dv=0
EndChar

StartChar: uni05D2
Encoding: 1490 1490 61
Width: 434
GlyphClass: 2
Flags: MW
HStem: 0 21G<244 347 244 244> 506 83
VStem: 11 336<0 124>
AnchorPoint: "Anchor-4" 0 536 basechar 0
AnchorPoint: "Anchor-3" 175 536 basechar 0
AnchorPoint: "Anchor-2" 116 342 basechar 0
AnchorPoint: "Anchor-1" 15 0 basechar 0
AnchorPoint: "Anchor-0" 176 0 basechar 0
LayerCount: 2
Fore
SplineSet
202 354 m 2
 191 447 l 1
 190 494 170 511 131 509 c 2
 35 504 l 1
 32 587 l 1
 154 592 l 2
 225 595 268 550 280 452 c 2
 311 200 l 1
 347 0 l 1
 244 0 l 1
 221 224 l 1
 16 -13 l 1
 11 124 l 1
 201 329 l 1
 202 337 202 345 202 354 c 2
EndSplineSet
PairPos2: "'kern' Horizontal Kerning in Hebrew lookup 0 per glyph data 1" uni05E4 dx=0 dy=0 dh=0 dv=0 dx=0 dy=0 dh=0 dv=0
PairPos2: "'kern' Horizontal Kerning in Hebrew lookup 0 per glyph data 1" uni05D8 dx=0 dy=0 dh=0 dv=0 dx=0 dy=0 dh=0 dv=0
PairPos2: "'kern' Horizontal Kerning in Hebrew lookup 0 per glyph data 1" uni05D1 dx=0 dy=0 dh=0 dv=0 dx=0 dy=0 dh=0 dv=0
EndChar

StartChar: uni05D3
Encoding: 1491 1491 62
Width: 639
GlyphClass: 2
Flags: MW
HStem: 0 21G<302 424 302 302> 515 81
VStem: 300 188
AnchorPoint: "Anchor-4" -12 536 basechar 0
AnchorPoint: "Anchor-3" 254 536 basechar 0
AnchorPoint: "Anchor-2" 164 300 basechar 0
AnchorPoint: "Anchor-1" 164 0 basechar 0
AnchorPoint: "Anchor-0" 362 0 basechar 0
LayerCount: 2
Fore
SplineSet
490 509 m 1
 390 511 l 1
 390 509 l 1
 424 0 l 1
 302 0 l 1
 299 512 l 1
 -8 518 l 1
 -11 601 l 1
 487 592 l 1
 490 509 l 1
EndSplineSet
PairPos2: "'kern' Horizontal Kerning in Hebrew lookup 0 per glyph data 1" uni05E8 dx=0 dy=0 dh=0 dv=0 dx=0 dy=0 dh=0 dv=0
PairPos2: "'kern' Horizontal Kerning in Hebrew lookup 0 per glyph data 1" uni05E4 dx=-60 dy=0 dh=-60 dv=0 dx=0 dy=0 dh=0 dv=0
PairPos2: "'kern' Horizontal Kerning in Hebrew lookup 0 per glyph data 1" uni05E3 dx=-60 dy=0 dh=-60 dv=0 dx=0 dy=0 dh=0 dv=0
PairPos2: "'kern' Horizontal Kerning in Hebrew lookup 0 per glyph data 1" uni05E1 dx=-50 dy=0 dh=-50 dv=0 dx=0 dy=0 dh=0 dv=0
PairPos2: "'kern' Horizontal Kerning in Hebrew lookup 0 per glyph data 1" uni05DE dx=0 dy=0 dh=0 dv=0 dx=0 dy=0 dh=0 dv=0
PairPos2: "'kern' Horizontal Kerning in Hebrew lookup 0 per glyph data 1" uni05DD dx=0 dy=0 dh=0 dv=0 dx=0 dy=0 dh=0 dv=0
PairPos2: "'kern' Horizontal Kerning in Hebrew lookup 0 per glyph data 1" uni05DB dx=-50 dy=0 dh=-50 dv=0 dx=0 dy=0 dh=0 dv=0
PairPos2: "'kern' Horizontal Kerning in Hebrew lookup 0 per glyph data 1" uni05DA dx=-60 dy=0 dh=-60 dv=0 dx=0 dy=0 dh=0 dv=0
PairPos2: "'kern' Horizontal Kerning in Hebrew lookup 0 per glyph data 1" uni05D1 dx=-50 dy=0 dh=-50 dv=0 dx=0 dy=0 dh=0 dv=0
PairPos2: "'kern' Horizontal Kerning in Hebrew lookup 0 per glyph data 0" uni05D8 dx=-30 dy=0 dh=-30 dv=0 dx=0 dy=0 dh=0 dv=0
EndChar

StartChar: uni05D4
Encoding: 1492 1492 63
Width: 782
GlyphClass: 2
Flags: MW
HStem: 0 21G<466 588 466 466> 506 83
VStem: 67 101<294 354>
AnchorPoint: "Anchor-4" 0 536 basechar 0
AnchorPoint: "Anchor-3" 301 536 basechar 0
AnchorPoint: "Anchor-2" 329 300 basechar 0
AnchorPoint: "Anchor-1" 85 0 basechar 0
AnchorPoint: "Anchor-0" 329 0 basechar 0
LayerCount: 2
Fore
SplineSet
561 403 m 2
 588 0 l 1
 466 0 l 1
 464 385 l 2
 460 478 420 510 347 509 c 2
 67 504 l 1
 64 587 l 1
 350 592 l 2
 486 594 556 535 561 403 c 2
67 354 m 1
 168 354 l 1
 168 229 194 84 228 -23 c 1
 92 26 l 1
 80 116 67 234 67 354 c 1
EndSplineSet
EndChar

StartChar: uni05D5
Encoding: 1493 1493 64
Width: 312
GlyphClass: 2
Flags: MW
HStem: 0 21G<69 69 69 191>
VStem: 67 84
AnchorPoint: "Anchor-4" 130 536 basechar 0
AnchorPoint: "Anchor-3" 130 536 basechar 0
AnchorPoint: "Anchor-2" 14 300 basechar 0
AnchorPoint: "Anchor-1" 14 0 basechar 0
AnchorPoint: "Anchor-0" 130 0 basechar 0
LayerCount: 2
Fore
SplineSet
69 0 m 1
 65 592 l 1
 151 592 l 1
 191 0 l 1
 69 0 l 1
EndSplineSet
EndChar

StartChar: uni05D6
Encoding: 1494 1494 65
Width: 360
GlyphClass: 2
Flags: MW
HStem: 0 21G<84 206 84 84> 512 83
VStem: 82 100<360 360 360 397> 157 98
AnchorPoint: "Anchor-4" -12 536 basechar 0
AnchorPoint: "Anchor-3" 150 536 basechar 0
AnchorPoint: "Anchor-2" -10 300 basechar 0
AnchorPoint: "Anchor-1" -10 0 basechar 0
AnchorPoint: "Anchor-0" 144 0 basechar 0
LayerCount: 2
Fore
SplineSet
182 360 m 2xe0
 206 0 l 1
 84 0 l 1
 82 349 l 2xe0
 82 445 130 488 157 506 c 1
 157 509 l 1
 7 515 l 1
 4 598 l 1
 254 592 l 1
 257 516 l 1xd0
 251 512 241 504 228 493 c 0
 201 470 180 431 182 360 c 2xe0
EndSplineSet
PairPos2: "'kern' Horizontal Kerning in Hebrew lookup 0 per glyph data 1" uni05D1 dx=0 dy=0 dh=0 dv=0 dx=0 dy=0 dh=0 dv=0
EndChar

StartChar: uni05D7
Encoding: 1495 1495 66
Width: 806
GlyphClass: 2
Flags: MW
HStem: 0 21G<69 191 69 69 426 426> 504 83
VStem: 67 90 489 99
AnchorPoint: "Anchor-4" 0 536 basechar 0
AnchorPoint: "Anchor-3" 339 536 basechar 0
AnchorPoint: "Anchor-2" 339 300 basechar 0
AnchorPoint: "Anchor-1" 85 0 basechar 0
AnchorPoint: "Anchor-0" 339 0 basechar 0
LayerCount: 2
Fore
SplineSet
367 499 m 2
 157 509 l 1
 191 0 l 1
 69 0 l 1
 65 592 l 1
 370 582 l 2
 669 572 582 247 556 49 c 1
 426 0 l 1
 462 113 574 489 367 499 c 2
EndSplineSet
EndChar

StartChar: uni05D8
Encoding: 1496 1496 67
Width: 808
GlyphClass: 2
Flags: MW
HStem: -13 132<289 422 289 472> 518 84<403.5 437.5>
VStem: 56 85 505 98
AnchorPoint: "Anchor-4" 0 536 basechar 0
AnchorPoint: "Anchor-3" 347 536 basechar 0
AnchorPoint: "Anchor-2" 347 300 basechar 0
AnchorPoint: "Anchor-1" 85 0 basechar 0
AnchorPoint: "Anchor-0" 350 0 basechar 0
LayerCount: 2
Fore
SplineSet
423 602 m 0
 529 602 594 545 603 413 c 0
 615 220 600 -13 344 -13 c 0
 182 -13 64 99 57 285 c 1
 56 602 l 1
 142 602 l 1
 165 296 l 2
 174 181 240 119 338 119 c 0
 506 119 510 272 505 389 c 0
 502 482 459 518 416 518 c 0
 385 518 330 503 302 486 c 1
 299 572 l 1
 306 576 315 580 326 583 c 0
 350 593 384 602 423 602 c 0
EndSplineSet
PairPos2: "'kern' Horizontal Kerning in Hebrew lookup 0 per glyph data 1" uni05E9 dx=-20 dy=0 dh=-20 dv=0 dx=0 dy=0 dh=0 dv=0
PairPos2: "'kern' Horizontal Kerning in Hebrew lookup 0 per glyph data 1" uni05E8 dx=-50 dy=0 dh=-50 dv=0 dx=0 dy=0 dh=0 dv=0
PairPos2: "'kern' Horizontal Kerning in Hebrew lookup 0 per glyph data 1" uni05E7 dx=0 dy=0 dh=0 dv=0 dx=0 dy=0 dh=0 dv=0
PairPos2: "'kern' Horizontal Kerning in Hebrew lookup 0 per glyph data 1" uni05E5 dx=-50 dy=0 dh=-50 dv=0 dx=0 dy=0 dh=0 dv=0
PairPos2: "'kern' Horizontal Kerning in Hebrew lookup 0 per glyph data 1" uni05E4 dx=-50 dy=0 dh=-50 dv=0 dx=0 dy=0 dh=0 dv=0
PairPos2: "'kern' Horizontal Kerning in Hebrew lookup 0 per glyph data 1" uni05E3 dx=-60 dy=0 dh=-60 dv=0 dx=0 dy=0 dh=0 dv=0
PairPos2: "'kern' Horizontal Kerning in Hebrew lookup 0 per glyph data 1" uni05E1 dx=-40 dy=0 dh=-40 dv=0 dx=0 dy=0 dh=0 dv=0
PairPos2: "'kern' Horizontal Kerning in Hebrew lookup 0 per glyph data 1" uni05DB dx=-40 dy=0 dh=-40 dv=0 dx=0 dy=0 dh=0 dv=0
PairPos2: "'kern' Horizontal Kerning in Hebrew lookup 0 per glyph data 1" uni05DA dx=-60 dy=0 dh=-60 dv=0 dx=0 dy=0 dh=0 dv=0
PairPos2: "'kern' Horizontal Kerning in Hebrew lookup 0 per glyph data 1" uni05D8 dx=-40 dy=0 dh=-40 dv=0 dx=0 dy=0 dh=0 dv=0
PairPos2: "'kern' Horizontal Kerning in Hebrew lookup 0 per glyph data 1" uni05D3 dx=-50 dy=0 dh=-50 dv=0 dx=0 dy=0 dh=0 dv=0
EndChar

StartChar: uni05D9
Encoding: 1497 1497 68
Width: 282
GlyphClass: 2
Flags: MW
HStem: 213 379<59 113 59 59>
VStem: 57 94
AnchorPoint: "Anchor-4" 0 536 basechar 0
AnchorPoint: "Anchor-3" 120 536 basechar 0
AnchorPoint: "Anchor-2" 9 408 basechar 0
AnchorPoint: "Anchor-1" -11 0 basechar 0
AnchorPoint: "Anchor-0" 120 0 basechar 0
LayerCount: 2
Fore
SplineSet
113 213 m 1
 59 213 l 1
 56 592 l 1
 142 592 l 1
 161 304 l 1
 113 213 l 1
EndSplineSet
PairPos2: "'kern' Horizontal Kerning in Hebrew lookup 0 per glyph data 1" uni05E9 dx=-20 dy=0 dh=-20 dv=0 dx=0 dy=0 dh=0 dv=0
PairPos2: "'kern' Horizontal Kerning in Hebrew lookup 0 per glyph data 1" uni05E4 dx=-30 dy=0 dh=-30 dv=0 dx=0 dy=0 dh=0 dv=0
PairPos2: "'kern' Horizontal Kerning in Hebrew lookup 0 per glyph data 1" uni05E1 dx=-20 dy=0 dh=-20 dv=0 dx=0 dy=0 dh=0 dv=0
PairPos2: "'kern' Horizontal Kerning in Hebrew lookup 0 per glyph data 1" uni05DE dx=0 dy=0 dh=0 dv=0 dx=0 dy=0 dh=0 dv=0
PairPos2: "'kern' Horizontal Kerning in Hebrew lookup 0 per glyph data 1" uni05DD dx=-30 dy=0 dh=-30 dv=0 dx=0 dy=0 dh=0 dv=0
PairPos2: "'kern' Horizontal Kerning in Hebrew lookup 0 per glyph data 1" uni05DB dx=-20 dy=0 dh=-20 dv=0 dx=0 dy=0 dh=0 dv=0
PairPos2: "'kern' Horizontal Kerning in Hebrew lookup 0 per glyph data 1" uni05D8 dx=-20 dy=0 dh=-20 dv=0 dx=0 dy=0 dh=0 dv=0
PairPos2: "'kern' Horizontal Kerning in Hebrew lookup 0 per glyph data 1" uni05D7 dx=0 dy=0 dh=0 dv=0 dx=0 dy=0 dh=0 dv=0
PairPos2: "'kern' Horizontal Kerning in Hebrew lookup 0 per glyph data 1" uni05D1 dx=-40 dy=0 dh=-40 dv=0 dx=0 dy=0 dh=0 dv=0
PairPos2: "'kern' Horizontal Kerning in Hebrew lookup 0 per glyph data 0" uni05E8 dx=-20 dy=0 dh=-20 dv=0 dx=0 dy=0 dh=0 dv=0
EndChar

StartChar: uni05DA
Encoding: 1498 1498 69
Width: 654
GlyphClass: 2
Flags: MW
HStem: 503 84
VStem: 364 100
AnchorPoint: "Anchor-4" -12 536 basechar 0
AnchorPoint: "Anchor-3" 245 536 basechar 0
AnchorPoint: "Anchor-2" 198 300 basechar 0
AnchorPoint: "Anchor-1" 25 0 basechar 0
AnchorPoint: "Anchor-0" 198 240 basechar 0
LayerCount: 2
Fore
SplineSet
515 509 m 1
 453 508 461 426 471 290 c 2
 508 -240 l 1
 364 -240 l 1
 364 293 l 2
 364 424 369 473 387 507 c 1
 -3 499 l 1
 -6 582 l 1
 512 592 l 1
 515 509 l 1
EndSplineSet
EndChar

StartChar: uni05DB
Encoding: 1499 1499 70
Width: 648
GlyphClass: 2
Flags: MW
HStem: 0 132<30 226 226 232 30 30> 506 83
VStem: 385 109
AnchorPoint: "Anchor-4" -12 536 basechar 0
AnchorPoint: "Anchor-3" 207 536 basechar 0
AnchorPoint: "Anchor-2" 214 300 basechar 0
AnchorPoint: "Anchor-1" 40 0 basechar 0
AnchorPoint: "Anchor-0" 231 0 basechar 0
LayerCount: 2
Fore
SplineSet
187 509 m 2
 12 504 l 1
 9 587 l 1
 190 592 l 2
 350 596 488 469 494 298 c 0
 500 112 394 0 232 0 c 2
 30 0 l 1
 26 132 l 1
 226 132 l 2
 324 132 389 197 385 309 c 0
 382 400 300 512 187 509 c 2
EndSplineSet
PairPos2: "'kern' Horizontal Kerning in Hebrew lookup 0 per glyph data 1" uni05E9 dx=0 dy=0 dh=0 dv=0 dx=0 dy=0 dh=0 dv=0
PairPos2: "'kern' Horizontal Kerning in Hebrew lookup 0 per glyph data 1" uni05E8 dx=0 dy=0 dh=0 dv=0 dx=0 dy=0 dh=0 dv=0
PairPos2: "'kern' Horizontal Kerning in Hebrew lookup 0 per glyph data 1" uni05E4 dx=-20 dy=0 dh=-20 dv=0 dx=0 dy=0 dh=0 dv=0
PairPos2: "'kern' Horizontal Kerning in Hebrew lookup 0 per glyph data 1" uni05E3 dx=-30 dy=0 dh=-30 dv=0 dx=0 dy=0 dh=0 dv=0
PairPos2: "'kern' Horizontal Kerning in Hebrew lookup 0 per glyph data 1" uni05E1 dx=-30 dy=0 dh=-30 dv=0 dx=0 dy=0 dh=0 dv=0
PairPos2: "'kern' Horizontal Kerning in Hebrew lookup 0 per glyph data 1" uni05DB dx=-20 dy=0 dh=-20 dv=0 dx=0 dy=0 dh=0 dv=0
PairPos2: "'kern' Horizontal Kerning in Hebrew lookup 0 per glyph data 1" uni05DA dx=-20 dy=0 dh=-20 dv=0 dx=0 dy=0 dh=0 dv=0
PairPos2: "'kern' Horizontal Kerning in Hebrew lookup 0 per glyph data 1" uni05D8 dx=-30 dy=0 dh=-30 dv=0 dx=0 dy=0 dh=0 dv=0
EndChar

StartChar: uni05DC
Encoding: 1500 1500 71
Width: 612
GlyphClass: 2
Flags: MW
HStem: 512 83
VStem: -6 92<598 766 598 766 598 766>
AnchorPoint: "Anchor-4" -37 536 basechar 0
AnchorPoint: "Anchor-3" 290 536 basechar 0
AnchorPoint: "Anchor-2" 165 300 basechar 0
AnchorPoint: "Anchor-1" 225 0 basechar 0
AnchorPoint: "Anchor-0" 241 0 basechar 0
LayerCount: 2
Fore
SplineSet
216 -14 m 1
 204 132 l 1
 289 181 320 223 350 344 c 0
 373 438 281 506 181 509 c 2
 -6 515 l 1
 -6 766 l 1
 86 766 l 1
 86 598 l 1
 203 592 l 2
 364 584 470 487 449 364 c 0
 419 187 369 54 216 -14 c 1
EndSplineSet
PairPos2: "'kern' Horizontal Kerning in Hebrew lookup 0 per glyph data 1" uni05E9 dx=0 dy=0 dh=0 dv=0 dx=0 dy=0 dh=0 dv=0
PairPos2: "'kern' Horizontal Kerning in Hebrew lookup 0 per glyph data 1" uni05E5 dx=20 dy=0 dh=20 dv=0 dx=0 dy=0 dh=0 dv=0
PairPos2: "'kern' Horizontal Kerning in Hebrew lookup 0 per glyph data 1" uni05E4 dx=-40 dy=0 dh=-40 dv=0 dx=0 dy=0 dh=0 dv=0
PairPos2: "'kern' Horizontal Kerning in Hebrew lookup 0 per glyph data 1" uni05E3 dx=-60 dy=0 dh=-60 dv=0 dx=0 dy=0 dh=0 dv=0
PairPos2: "'kern' Horizontal Kerning in Hebrew lookup 0 per glyph data 1" uni05E1 dx=-60 dy=0 dh=-60 dv=0 dx=0 dy=0 dh=0 dv=0
PairPos2: "'kern' Horizontal Kerning in Hebrew lookup 0 per glyph data 1" uni05DB dx=-50 dy=0 dh=-50 dv=0 dx=0 dy=0 dh=0 dv=0
PairPos2: "'kern' Horizontal Kerning in Hebrew lookup 0 per glyph data 1" uni05DA dx=-60 dy=0 dh=-60 dv=0 dx=0 dy=0 dh=0 dv=0
PairPos2: "'kern' Horizontal Kerning in Hebrew lookup 0 per glyph data 1" uni05D8 dx=-40 dy=0 dh=-40 dv=0 dx=0 dy=0 dh=0 dv=0
PairPos2: "'kern' Horizontal Kerning in Hebrew lookup 0 per glyph data 1" uni05D1 dx=0 dy=0 dh=0 dv=0 dx=0 dy=0 dh=0 dv=0
EndChar

StartChar: uni05DD
Encoding: 1501 1501 72
Width: 782
GlyphClass: 2
Flags: MW
HStem: 0 132<55 464 168 464 168 587> 519 83<347 350>
VStem: 53 89
AnchorPoint: "Anchor-4" 0 536 basechar 0
AnchorPoint: "Anchor-3" 321 536 basechar 0
AnchorPoint: "Anchor-2" 321 296 basechar 0
AnchorPoint: "Anchor-1" 70 0 basechar 0
AnchorPoint: "Anchor-0" 321 0 basechar 0
LayerCount: 2
Fore
SplineSet
55 0 m 1
 52 512 l 1
 49 582 l 1
 350 602 l 2
 486 611 551 545 560 413 c 2
 587 0 l 1
 55 0 l 1
168 132 m 1
 464 132 l 1
 463 395 l 2
 462 488 420 526 347 519 c 2
 143 499 l 1
 168 132 l 1
EndSplineSet
EndChar

StartChar: uni05DE
Encoding: 1502 1502 73
Width: 714
GlyphClass: 2
Flags: MW
HStem: 0 132<26 422 258 422 258 507 246 422> 522 83<293.5 353.5>
VStem: 26 90<592 592> 435 98<239.5 366>
AnchorPoint: "Anchor-4" 0 536 basechar 0
AnchorPoint: "Anchor-3" 346 536 basechar 0
AnchorPoint: "Anchor-2" 325 300 basechar 0
AnchorPoint: "Anchor-1" 95 0 basechar 0
AnchorPoint: "Anchor-0" 325 0 basechar 0
LayerCount: 2
Fore
SplineSet
116 592 m 1
 145 507 l 1
 188 566 253 605 334 605 c 0
 453 605 533 500 533 294 c 0
 533 170 515 52 507 0 c 1
 246 0 l 1
 258 132 l 1
 422 132 l 1
 425 168 435 188 435 291 c 0
 435 441 393 522 314 522 c 0
 270 522 203 486 159 393 c 0
 109 288 98 174 148 0 c 1
 26 0 l 1
 23 166 23 279 93 429 c 1
 26 592 l 1
 116 592 l 1
EndSplineSet
PairPos2: "'kern' Horizontal Kerning in Hebrew lookup 0 per glyph data 1" uni05E9 dx=0 dy=0 dh=0 dv=0 dx=0 dy=0 dh=0 dv=0
PairPos2: "'kern' Horizontal Kerning in Hebrew lookup 0 per glyph data 1" uni05D8 dx=0 dy=0 dh=0 dv=0 dx=0 dy=0 dh=0 dv=0
EndChar

StartChar: uni05DF
Encoding: 1503 1503 74
Width: 352
GlyphClass: 2
Flags: MW
HStem: 511 83
VStem: 108 141
AnchorPoint: "Anchor-4" -12 536 basechar 0
AnchorPoint: "Anchor-3" 117 536 basechar 0
AnchorPoint: "Anchor-2" 60 300 basechar 0
AnchorPoint: "Anchor-1" 20 0 basechar 0
LayerCount: 2
Fore
SplineSet
203 456 m 2
 249 -240 l 1
 107 -240 l 1
 109 445 l 2
 107 492 87 505 48 509 c 2
 2 514 l 1
 -1 597 l 1
 71 592 l 2
 142 587 197 555 203 456 c 2
EndSplineSet
EndChar

StartChar: uni05E0
Encoding: 1504 1504 75
Width: 476
GlyphClass: 2
Flags: MW
HStem: 0 132<30 211 26 334 30 30> 504 83
VStem: 26 308<0 132>
AnchorPoint: "Anchor-4" 0 536 basechar 0
AnchorPoint: "Anchor-3" 184 536 basechar 0
AnchorPoint: "Anchor-2" 124 300 basechar 0
AnchorPoint: "Anchor-1" 7 0 basechar 0
AnchorPoint: "Anchor-0" 184 0 basechar 0
LayerCount: 2
Fore
SplineSet
304 456 m 2
 334 0 l 1
 30 0 l 1
 26 132 l 1
 211 132 l 1
 210 445 l 2
 209 492 190 512 151 509 c 2
 45 500 l 1
 42 583 l 1
 174 592 l 2
 245 597 298 555 304 456 c 2
EndSplineSet
PairPos2: "'kern' Horizontal Kerning in Hebrew lookup 0 per glyph data 1" uni05E4 dx=0 dy=0 dh=0 dv=0 dx=0 dy=0 dh=0 dv=0
PairPos2: "'kern' Horizontal Kerning in Hebrew lookup 0 per glyph data 1" uni05E3 dx=0 dy=0 dh=0 dv=0 dx=0 dy=0 dh=0 dv=0
PairPos2: "'kern' Horizontal Kerning in Hebrew lookup 0 per glyph data 1" uni05E1 dx=0 dy=0 dh=0 dv=0 dx=0 dy=0 dh=0 dv=0
PairPos2: "'kern' Horizontal Kerning in Hebrew lookup 0 per glyph data 1" uni05DB dx=0 dy=0 dh=0 dv=0 dx=0 dy=0 dh=0 dv=0
EndChar

StartChar: uni05E1
Encoding: 1505 1505 76
Width: 817
GlyphClass: 2
Flags: MW
HStem: -13 134<285 399 285 440.5> 511 78
VStem: 70 91 528 93
AnchorPoint: "Anchor-4" -12 536 basechar 0
AnchorPoint: "Anchor-3" 355 536 basechar 0
AnchorPoint: "Anchor-2" 355 300 basechar 0
AnchorPoint: "Anchor-1" 79 0 basechar 0
AnchorPoint: "Anchor-0" 357 0 basechar 0
LayerCount: 2
Fore
SplineSet
17 502 m 1
 14 585 l 1
 330 595 l 2
 514 601 615 473 621 292 c 0
 628 100 524 -13 357 -13 c 0
 195 -13 77 99 70 285 c 0
 68 355 79 449 91 509 c 1
 17 502 l 1
181 511 m 1
 174 476 158 402 161 308 c 1
 170 193 236 121 334 121 c 0
 464 121 533 154 528 294 c 0
 522 459 441 514 317 512 c 2
 181 511 l 1
EndSplineSet
PairPos2: "'kern' Horizontal Kerning in Hebrew lookup 0 per glyph data 1" uni05E9 dx=-30 dy=0 dh=-30 dv=0 dx=0 dy=0 dh=0 dv=0
PairPos2: "'kern' Horizontal Kerning in Hebrew lookup 0 per glyph data 1" uni05E8 dx=-40 dy=0 dh=-40 dv=0 dx=0 dy=0 dh=0 dv=0
PairPos2: "'kern' Horizontal Kerning in Hebrew lookup 0 per glyph data 1" uni05E4 dx=-30 dy=0 dh=-30 dv=0 dx=0 dy=0 dh=0 dv=0
PairPos2: "'kern' Horizontal Kerning in Hebrew lookup 0 per glyph data 1" uni05E3 dx=-50 dy=0 dh=-50 dv=0 dx=0 dy=0 dh=0 dv=0
PairPos2: "'kern' Horizontal Kerning in Hebrew lookup 0 per glyph data 1" uni05E1 dx=-20 dy=0 dh=-20 dv=0 dx=0 dy=0 dh=0 dv=0
PairPos2: "'kern' Horizontal Kerning in Hebrew lookup 0 per glyph data 1" uni05DC dx=-20 dy=0 dh=-20 dv=0 dx=0 dy=0 dh=0 dv=0
PairPos2: "'kern' Horizontal Kerning in Hebrew lookup 0 per glyph data 1" uni05DB dx=-30 dy=0 dh=-30 dv=0 dx=0 dy=0 dh=0 dv=0
PairPos2: "'kern' Horizontal Kerning in Hebrew lookup 0 per glyph data 1" uni05DA dx=-60 dy=0 dh=-60 dv=0 dx=0 dy=0 dh=0 dv=0
PairPos2: "'kern' Horizontal Kerning in Hebrew lookup 0 per glyph data 1" uni05D8 dx=-30 dy=0 dh=-30 dv=0 dx=0 dy=0 dh=0 dv=0
EndChar

StartChar: uni05E2
Encoding: 1506 1506 77
Width: 669
GlyphClass: 2
Flags: MW
HStem: 0 21G<25 25>
VStem: 21 486<130 592>
AnchorPoint: "Anchor-4" 0 536 basechar 0
AnchorPoint: "Anchor-3" 324 536 basechar 0
AnchorPoint: "Anchor-2" 347 356 basechar 0
AnchorPoint: "Anchor-1" 25 0 basechar 0
AnchorPoint: "Anchor-0" 279 0 basechar 0
LayerCount: 2
Fore
SplineSet
206 60 m 2
 25 0 l 1
 21 130 l 1
 184 178 l 1
 48 592 l 1
 138 592 l 1
 280 222 l 1
 333 262 358 316 371 375 c 2
 417 592 l 1
 507 592 l 1
 480 375 l 2
 462 239 372 115 206 60 c 2
EndSplineSet
PairPos2: "'kern' Horizontal Kerning in Hebrew lookup 0 per glyph data 1" uni05E4 dx=0 dy=0 dh=0 dv=0 dx=0 dy=0 dh=0 dv=0
PairPos2: "'kern' Horizontal Kerning in Hebrew lookup 0 per glyph data 1" uni05E1 dx=-20 dy=0 dh=-20 dv=0 dx=0 dy=0 dh=0 dv=0
PairPos2: "'kern' Horizontal Kerning in Hebrew lookup 0 per glyph data 1" uni05D9 dx=-20 dy=0 dh=-20 dv=0 dx=0 dy=0 dh=0 dv=0
EndChar

StartChar: uni05E3
Encoding: 1507 1507 78
Width: 699
GlyphClass: 2
Flags: MW
HStem: 233 102<152 179.5> 513 85
VStem: -9 94 407 142<-240 299>
AnchorPoint: "Anchor-4" -24 536 basechar 0
AnchorPoint: "Anchor-3" 262 536 basechar 0
AnchorPoint: "Anchor-2" 325 256 basechar 0
AnchorPoint: "Anchor-1" 10 0 basechar 0
LayerCount: 2
Fore
SplineSet
88 452 m 2
 94 374 123 335 181 335 c 0
 192 335 203 336 214 337 c 1
 218 236 l 1
 203 235 186 233 173 233 c 0
 55 233 -4 330 -8 444 c 2
 -9 604 l 1
 210 592 l 2
 370 583 500 461 512 290 c 2
 549 -240 l 1
 407 -240 l 1
 407 299 l 2
 406 390 320 502 207 509 c 2
 83 517 l 1
 88 452 l 2
EndSplineSet
EndChar

StartChar: uni05E4
Encoding: 1508 1508 79
Width: 723
GlyphClass: 2
Flags: MW
HStem: 0 132<49 286 286 292 49 49> 233 102<192 219.5> 514 83
VStem: 31 94 445 109
AnchorPoint: "Anchor-4" -6 536 basechar 0
AnchorPoint: "Anchor-3" 271 536 basechar 0
AnchorPoint: "Anchor-2" 363 279 basechar 0
AnchorPoint: "Anchor-1" 50 0 basechar 0
AnchorPoint: "Anchor-0" 270 0 basechar 0
LayerCount: 2
Fore
SplineSet
123 519 m 1
 128 432 l 2
 132 354 163 335 221 335 c 0
 232 335 243 336 254 337 c 1
 258 236 l 1
 243 235 226 233 213 233 c 0
 95 233 36 310 32 424 c 2
 31 602 l 1
 250 592 l 2
 410 585 548 469 554 298 c 0
 560 112 454 0 292 0 c 2
 49 0 l 1
 45 132 l 1
 286 132 l 2
 384 132 449 197 445 309 c 0
 442 400 360 500 247 509 c 2
 123 519 l 1
EndSplineSet
PairPos2: "'kern' Horizontal Kerning in Hebrew lookup 0 per glyph data 1" uni05E9 dx=0 dy=0 dh=0 dv=0 dx=0 dy=0 dh=0 dv=0
PairPos2: "'kern' Horizontal Kerning in Hebrew lookup 0 per glyph data 1" uni05E5 dx=-10 dy=0 dh=-10 dv=0 dx=0 dy=0 dh=0 dv=0
PairPos2: "'kern' Horizontal Kerning in Hebrew lookup 0 per glyph data 1" uni05E4 dx=0 dy=0 dh=0 dv=0 dx=0 dy=0 dh=0 dv=0
PairPos2: "'kern' Horizontal Kerning in Hebrew lookup 0 per glyph data 1" uni05E3 dx=-30 dy=0 dh=-30 dv=0 dx=0 dy=0 dh=0 dv=0
PairPos2: "'kern' Horizontal Kerning in Hebrew lookup 0 per glyph data 1" uni05E1 dx=-30 dy=0 dh=-30 dv=0 dx=0 dy=0 dh=0 dv=0
PairPos2: "'kern' Horizontal Kerning in Hebrew lookup 0 per glyph data 1" uni05DF dx=0 dy=0 dh=0 dv=0 dx=0 dy=0 dh=0 dv=0
PairPos2: "'kern' Horizontal Kerning in Hebrew lookup 0 per glyph data 1" uni05DC dx=0 dy=0 dh=0 dv=0 dx=0 dy=0 dh=0 dv=0
PairPos2: "'kern' Horizontal Kerning in Hebrew lookup 0 per glyph data 1" uni05DB dx=-30 dy=0 dh=-30 dv=0 dx=0 dy=0 dh=0 dv=0
PairPos2: "'kern' Horizontal Kerning in Hebrew lookup 0 per glyph data 1" uni05DA dx=-30 dy=0 dh=-30 dv=0 dx=0 dy=0 dh=0 dv=0
PairPos2: "'kern' Horizontal Kerning in Hebrew lookup 0 per glyph data 1" uni05D8 dx=-20 dy=0 dh=-20 dv=0 dx=0 dy=0 dh=0 dv=0
PairPos2: "'kern' Horizontal Kerning in Hebrew lookup 0 per glyph data 1" uni05D3 dx=0 dy=0 dh=0 dv=0 dx=0 dy=0 dh=0 dv=0
EndChar

StartChar: uni05E5
Encoding: 1509 1509 80
Width: 574
GlyphClass: 2
Flags: MW
HStem: -240 832<-16 257 -16 135>
VStem: 138 94 352 90
AnchorPoint: "Anchor-4" -12 536 basechar 0
AnchorPoint: "Anchor-3" 240 536 basechar 0
AnchorPoint: "Anchor-2" 260 444 basechar 0
AnchorPoint: "Anchor-1" 6 0 basechar 0
LayerCount: 2
Fore
SplineSet
281 162 m 2
 232 147 l 1
 257 -240 l 1
 135 -240 l 1
 141 181 l 1
 -16 592 l 1
 79 592 l 1
 220 258 l 1
 265 272 l 2
 320 288 343 328 347 402 c 2
 358 592 l 1
 448 592 l 1
 438 420 l 2
 432 306 422 205 281 162 c 2
EndSplineSet
EndChar

StartChar: uni05E6
Encoding: 1510 1510 81
Width: 670
GlyphClass: 2
Flags: MW
HStem: 0 132<25 316 21 482 25 25>
VStem: 403 90
AnchorPoint: "Anchor-4" 0 536 basechar 0
AnchorPoint: "Anchor-3" 278 536 basechar 0
AnchorPoint: "Anchor-2" 117 243 basechar 0
AnchorPoint: "Anchor-1" 25 0 basechar 0
AnchorPoint: "Anchor-0" 253 0 basechar 0
LayerCount: 2
Fore
SplineSet
482 0 m 1
 25 0 l 1
 21 132 l 1
 316 132 l 1
 3 592 l 1
 101 592 l 1
 320 294 l 1
 370 322 409 369 406 460 c 2
 401 592 l 1
 491 592 l 1
 496 446 l 2
 500 332 454 251 385 206 c 1
 479 78 l 1
 482 0 l 1
EndSplineSet
PairPos2: "'kern' Horizontal Kerning in Hebrew lookup 0 per glyph data 1" uni05E4 dx=0 dy=0 dh=0 dv=0 dx=0 dy=0 dh=0 dv=0
PairPos2: "'kern' Horizontal Kerning in Hebrew lookup 0 per glyph data 1" uni05E3 dx=0 dy=0 dh=0 dv=0 dx=0 dy=0 dh=0 dv=0
PairPos2: "'kern' Horizontal Kerning in Hebrew lookup 0 per glyph data 1" uni05E2 dx=0 dy=0 dh=0 dv=0 dx=0 dy=0 dh=0 dv=0
PairPos2: "'kern' Horizontal Kerning in Hebrew lookup 0 per glyph data 1" uni05E1 dx=0 dy=0 dh=0 dv=0 dx=0 dy=0 dh=0 dv=0
PairPos2: "'kern' Horizontal Kerning in Hebrew lookup 0 per glyph data 1" uni05DE dx=0 dy=0 dh=0 dv=0 dx=0 dy=0 dh=0 dv=0
PairPos2: "'kern' Horizontal Kerning in Hebrew lookup 0 per glyph data 1" uni05DD dx=0 dy=0 dh=0 dv=0 dx=0 dy=0 dh=0 dv=0
PairPos2: "'kern' Horizontal Kerning in Hebrew lookup 0 per glyph data 1" uni05DB dx=0 dy=0 dh=0 dv=0 dx=0 dy=0 dh=0 dv=0
PairPos2: "'kern' Horizontal Kerning in Hebrew lookup 0 per glyph data 1" uni05D8 dx=0 dy=0 dh=0 dv=0 dx=0 dy=0 dh=0 dv=0
PairPos2: "'kern' Horizontal Kerning in Hebrew lookup 0 per glyph data 1" uni05D4 dx=0 dy=0 dh=0 dv=0 dx=0 dy=0 dh=0 dv=0
PairPos2: "'kern' Horizontal Kerning in Hebrew lookup 0 per glyph data 1" uni05D3 dx=0 dy=0 dh=0 dv=0 dx=0 dy=0 dh=0 dv=0
PairPos2: "'kern' Horizontal Kerning in Hebrew lookup 0 per glyph data 1" uni05D1 dx=0 dy=0 dh=0 dv=0 dx=0 dy=0 dh=0 dv=0
PairPos2: "'kern' Horizontal Kerning in Hebrew lookup 0 per glyph data 1" uni05D0 dx=0 dy=0 dh=0 dv=0 dx=0 dy=0 dh=0 dv=0
EndChar

StartChar: uni05E7
Encoding: 1511 1511 82
Width: 756
GlyphClass: 2
Flags: MW
HStem: 0 21G<313 438 313 313> 504 83
VStem: 60 101
AnchorPoint: "Anchor-4" 0 536 basechar 0
AnchorPoint: "Anchor-3" 338 536 basechar 0
AnchorPoint: "Anchor-2" 293 300 basechar 0
AnchorPoint: "Anchor-1" 36 0 basechar 0
AnchorPoint: "Anchor-0" 361 0 basechar 0
LayerCount: 2
Fore
SplineSet
438 0 m 1
 313 0 l 1
 483 499 l 1
 62 509 l 1
 59 592 l 1
 574 582 l 1
 577 514 l 1
 438 0 l 1
60 -240 m 1
 61 362 l 1
 162 362 l 1
 202 -240 l 1
 60 -240 l 1
EndSplineSet
PairPos2: "'kern' Horizontal Kerning in Hebrew lookup 0 per glyph data 1" uni05E5 dx=0 dy=0 dh=0 dv=0 dx=0 dy=0 dh=0 dv=0
PairPos2: "'kern' Horizontal Kerning in Hebrew lookup 0 per glyph data 1" uni05DC dx=-20 dy=0 dh=-20 dv=0 dx=0 dy=0 dh=0 dv=0
PairPos2: "'kern' Horizontal Kerning in Hebrew lookup 0 per glyph data 1" uni05DB dx=0 dy=0 dh=0 dv=0 dx=0 dy=0 dh=0 dv=0
EndChar

StartChar: uni05E8
Encoding: 1512 1512 83
Width: 650
GlyphClass: 2
Flags: MW
HStem: 0 21G<357 479 357 357> 504 83
VStem: -6 485
AnchorPoint: "Anchor-4" -12 536 basechar 0
AnchorPoint: "Anchor-3" 234 536 basechar 0
AnchorPoint: "Anchor-2" 194 300 basechar 0
AnchorPoint: "Anchor-1" 194 0 basechar 0
AnchorPoint: "Anchor-0" 417 0 basechar 0
LayerCount: 2
Fore
SplineSet
452 404 m 2
 479 0 l 1
 357 0 l 1
 355 385 l 2
 353 469 319 512 237 509 c 2
 -3 499 l 1
 -6 582 l 1
 240 592 l 2
 377 598 447 536 452 404 c 2
EndSplineSet
PairPos2: "'kern' Horizontal Kerning in Hebrew lookup 0 per glyph data 1" uni05E4 dx=-50 dy=0 dh=-50 dv=0 dx=0 dy=0 dh=0 dv=0
PairPos2: "'kern' Horizontal Kerning in Hebrew lookup 0 per glyph data 1" uni05E3 dx=0 dy=0 dh=0 dv=0 dx=0 dy=0 dh=0 dv=0
PairPos2: "'kern' Horizontal Kerning in Hebrew lookup 0 per glyph data 1" uni05E1 dx=-50 dy=0 dh=-50 dv=0 dx=0 dy=0 dh=0 dv=0
PairPos2: "'kern' Horizontal Kerning in Hebrew lookup 0 per glyph data 1" uni05DB dx=0 dy=0 dh=0 dv=0 dx=0 dy=0 dh=0 dv=0
PairPos2: "'kern' Horizontal Kerning in Hebrew lookup 0 per glyph data 1" uni05DA dx=0 dy=0 dh=0 dv=0 dx=0 dy=0 dh=0 dv=0
PairPos2: "'kern' Horizontal Kerning in Hebrew lookup 0 per glyph data 1" uni05D1 dx=0 dy=0 dh=0 dv=0 dx=0 dy=0 dh=0 dv=0
PairPos2: "'kern' Horizontal Kerning in Hebrew lookup 0 per glyph data 0" uni05E8 dx=-20 dy=0 dh=-20 dv=0 dx=0 dy=0 dh=0 dv=0
PairPos2: "'kern' Horizontal Kerning in Hebrew lookup 0 per glyph data 0" uni05D8 dx=-20 dy=0 dh=-20 dv=0 dx=0 dy=0 dh=0 dv=0
EndChar

StartChar: uni05E9
Encoding: 1513 1513 84
Width: 843
GlyphClass: 2
Flags: MW
HStem: 0 132<188 281 281 296 93 281>
VStem: 302 90
AnchorPoint: "Anchor-5" 628 536 basechar 0
AnchorPoint: "Anchor-4" -16 536 basechar 0
AnchorPoint: "Anchor-3" 372 536 basechar 0
AnchorPoint: "Anchor-2" 412 217 basechar 0
AnchorPoint: "Anchor-1" 92 0 basechar 0
AnchorPoint: "Anchor-0" 338 0 basechar 0
LayerCount: 2
Fore
SplineSet
18 592 m 1
 108 592 l 1
 157 313 l 1
 220 336 294 370 299 460 c 2
 306 592 l 1
 396 592 l 1
 389 446 l 2
 383 311 271 241 176 205 c 1
 188 132 l 1
 281 132 l 2
 439 132 508 155 531 355 c 2
 557 592 l 1
 647 592 l 1
 640 355 l 2
 635 205 583 0 296 0 c 2
 93 0 l 1
 86 68 l 1
 85 68 l 1
 18 592 l 1
EndSplineSet
PairPos2: "'kern' Horizontal Kerning in Hebrew lookup 0 per glyph data 1" uni05E8 dx=-30 dy=0 dh=-30 dv=0 dx=0 dy=0 dh=0 dv=0
PairPos2: "'kern' Horizontal Kerning in Hebrew lookup 0 per glyph data 1" uni05E7 dx=0 dy=0 dh=0 dv=0 dx=0 dy=0 dh=0 dv=0
PairPos2: "'kern' Horizontal Kerning in Hebrew lookup 0 per glyph data 1" uni05E4 dx=-30 dy=0 dh=-30 dv=0 dx=0 dy=0 dh=0 dv=0
PairPos2: "'kern' Horizontal Kerning in Hebrew lookup 0 per glyph data 1" uni05E3 dx=-60 dy=0 dh=-60 dv=0 dx=0 dy=0 dh=0 dv=0
PairPos2: "'kern' Horizontal Kerning in Hebrew lookup 0 per glyph data 1" uni05E1 dx=-30 dy=0 dh=-30 dv=0 dx=0 dy=0 dh=0 dv=0
PairPos2: "'kern' Horizontal Kerning in Hebrew lookup 0 per glyph data 1" uni05DB dx=-39 dy=0 dh=-39 dv=0 dx=0 dy=0 dh=0 dv=0
PairPos2: "'kern' Horizontal Kerning in Hebrew lookup 0 per glyph data 1" uni05DA dx=-50 dy=0 dh=-50 dv=0 dx=0 dy=0 dh=0 dv=0
PairPos2: "'kern' Horizontal Kerning in Hebrew lookup 0 per glyph data 1" uni05D8 dx=0 dy=0 dh=0 dv=0 dx=0 dy=0 dh=0 dv=0
PairPos2: "'kern' Horizontal Kerning in Hebrew lookup 0 per glyph data 1" uni05D6 dx=0 dy=0 dh=0 dv=0 dx=0 dy=0 dh=0 dv=0
PairPos2: "'kern' Horizontal Kerning in Hebrew lookup 0 per glyph data 1" uni05D3 dx=-20 dy=0 dh=-20 dv=0 dx=0 dy=0 dh=0 dv=0
EndChar

StartChar: uni05EA
Encoding: 1514 1514 85
Width: 812
GlyphClass: 2
Flags: MW
HStem: 0 132<22 76 76 86 22 22> 505 81
VStem: 127 101
AnchorPoint: "Anchor-4" 0 536 basechar 0
AnchorPoint: "Anchor-3" 326 536 basechar 0
AnchorPoint: "Anchor-2" 362 300 basechar 0
AnchorPoint: "Anchor-1" 35 0 basechar 0
AnchorPoint: "Anchor-0" 362 0 basechar 0
LayerCount: 2
Fore
SplineSet
128 214 m 2
 126 497 l 1
 21 492 l 1
 18 582 l 1
 376 592 l 2
 512 596 582 535 587 403 c 2
 614 0 l 1
 492 0 l 1
 490 385 l 2
 487 470 454 513 372 509 c 2
 217 502 l 1
 239 180 l 1
 243 60 193 0 86 0 c 2
 22 0 l 1
 18 132 l 1
 76 132 l 2
 112 132 126 152 128 214 c 2
EndSplineSet
PairPos2: "'kern' Horizontal Kerning in Hebrew lookup 0 per glyph data 1" uni05E4 dx=0 dy=0 dh=0 dv=0 dx=0 dy=0 dh=0 dv=0
PairPos2: "'kern' Horizontal Kerning in Hebrew lookup 0 per glyph data 1" uni05DB dx=0 dy=0 dh=0 dv=0 dx=0 dy=0 dh=0 dv=0
EndChar

StartChar: uni05EF
Encoding: 1519 1519 86
Width: 594
GlyphClass: 2
Flags: MW
HStem: 694 20G<185 271 271 271>
VStem: 57 94 186 94 317 94
AnchorPoint: "Anchor-0" 238 0 basechar 0
LayerCount: 2
Fore
SplineSet
241 335 m 1
 187 335 l 1
 185 714 l 1
 271 714 l 1
 290 426 l 1
 241 335 l 1
113 213 m 1
 59 213 l 1
 56 592 l 1
 142 592 l 1
 161 304 l 1
 113 213 l 1
373 213 m 1
 319 213 l 1
 316 592 l 1
 402 592 l 1
 421 304 l 1
 373 213 l 1
EndSplineSet
EndChar

StartChar: uni05F0
Encoding: 1520 1520 87
Width: 624
GlyphClass: 3
Flags: MW
HStem: 0 21G<69 69 69 191 330 330 330 452>
VStem: 67 84 328 84
AnchorPoint: "Anchor-4" 112 536 basechar 0
AnchorPoint: "Anchor-3" 130 536 basechar 0
AnchorPoint: "Anchor-2" -10 300 basechar 0
AnchorPoint: "Anchor-1" -10 0 basechar 0
AnchorPoint: "Anchor-0" 260 0 basechar 0
LayerCount: 2
Fore
SplineSet
330 0 m 1
 326 592 l 1
 412 592 l 1
 452 0 l 1
 330 0 l 1
69 0 m 1
 65 592 l 1
 151 592 l 1
 191 0 l 1
 69 0 l 1
EndSplineSet
Ligature2: "'dlig' Discretionary Ligatures lookup 1 subtable" uni05D5 uni05D5
EndChar

StartChar: uni05F1
Encoding: 1521 1521 88
Width: 594
GlyphClass: 3
Flags: MW
HStem: 0 21G<304 304 304 426>
VStem: 57 94 302 84
LayerCount: 2
Fore
SplineSet
304 0 m 1
 300 592 l 1
 386 592 l 1
 426 0 l 1
 304 0 l 1
161 304 m 1
 113 213 l 1
 59 213 l 1
 56 592 l 1
 142 592 l 1
 161 304 l 1
EndSplineSet
Ligature2: "'dlig' Discretionary Ligatures lookup 1 subtable" uni05D5 uni05D9
EndChar

StartChar: uni05F2
Encoding: 1522 1522 89
Width: 564
GlyphClass: 3
Flags: MW
HStem: 213 379<59 113 59 59 294 348 294 294>
VStem: 57 94 292 94
AnchorPoint: "Anchor-0" 238 0 basechar 0
LayerCount: 2
Fore
SplineSet
348 213 m 1
 294 213 l 1
 291 592 l 1
 377 592 l 1
 396 304 l 1
 348 213 l 1
113 213 m 1
 59 213 l 1
 56 592 l 1
 142 592 l 1
 161 304 l 1
 113 213 l 1
EndSplineSet
Ligature2: "'dlig' Discretionary Ligatures lookup 1 subtable" uni05D9 uni05D9
EndChar

StartChar: uni05F3
Encoding: 1523 1523 90
Width: 218
GlyphClass: 2
Flags: MW
HStem: 581 11<61 162>
VStem: 12 150
LayerCount: 2
Fore
SplineSet
76 347 m 1
 12 347 l 1
 31 422 50 523 61 592 c 1
 155 592 l 1
 162 581 l 1
 144 511 107 418 76 347 c 1
EndSplineSet
EndChar

StartChar: uni05F4
Encoding: 1524 1524 91
Width: 440
GlyphClass: 2
Flags: MW
HStem: 581 11<61 162>
VStem: 12 335<347 581>
LayerCount: 2
Fore
SplineSet
261 347 m 1
 195 347 l 1
 215 422 236 523 246 592 c 1
 340 592 l 1
 347 581 l 1
 329 511 292 418 261 347 c 1
76 347 m 1
 12 347 l 1
 31 422 50 523 61 592 c 1
 155 592 l 1
 162 581 l 1
 144 511 107 418 76 347 c 1
EndSplineSet
EndChar

StartChar: uniFB1D
Encoding: 64285 64285 92
Width: 282
GlyphClass: 2
Flags: MW
HStem: 66 75<107 124 104 127>
VStem: 57 94 82 67<104 116.5>
AnchorPoint: "Anchor-4" 0 536 basechar 0
AnchorPoint: "Anchor-3" 120 536 basechar 0
AnchorPoint: "Anchor-2" 9 408 basechar 0
AnchorPoint: "Anchor-1" -11 0 basechar 0
AnchorPoint: "Anchor-0" 120 0 basechar 0
LayerCount: 2
Fore
SplineSet
113 213 m 1xc0
 59 213 l 1
 56 592 l 1
 142 592 l 1
 161 304 l 1
 113 213 l 1xc0
117 66 m 0xa0
 97 66 83 77 82 104 c 0
 82 129 94 141 114 141 c 0
 134 141 149 129 149 104 c 0
 150 79 137 66 117 66 c 0xa0
EndSplineSet
EndChar

StartChar: uniFB1E
Encoding: 64286 64286 93
Width: 0
GlyphClass: 4
Flags: MW
HStem: 658 53<137.5 172.5 137.5 188.5>
VStem: 50 50<751 767 751 767> 210 51<749 767>
AnchorPoint: "Anchor-3" 155 536 mark 0
LayerCount: 2
Fore
SplineSet
210 767 m 1
 261 767 l 1
 261 702 222 658 155 658 c 0
 90 658 50 702 50 767 c 1
 100 767 l 1
 100 735 120 711 155 711 c 0
 190 711 210 731 210 767 c 1
EndSplineSet
EndChar

StartChar: uniFB1F
Encoding: 64287 64287 94
Width: 564
GlyphClass: 3
Flags: MW
HStem: 96 47<143 143 143 319 141 321>
VStem: 57 94 142 178 292 94
LayerCount: 2
Fore
SplineSet
348 213 m 1xd0
 294 213 l 1
 291 592 l 1
 377 592 l 1
 396 304 l 1
 348 213 l 1xd0
113 213 m 1
 59 213 l 1
 56 592 l 1
 142 592 l 1
 161 304 l 1
 113 213 l 1
143 96 m 1xa0
 141 143 l 1xa0
 319 143 l 1
 321 96 l 1xd0
 143 96 l 1xa0
EndSplineSet
EndChar

StartChar: uniFB20
Encoding: 64288 64288 95
Width: 681
GlyphClass: 2
Flags: MW
HStem: 0 21G<25 25>
VStem: 21 486<120 592>
AnchorPoint: "Anchor-4" 58 536 basechar 0
AnchorPoint: "Anchor-3" 299 536 basechar 0
AnchorPoint: "Anchor-1" 14 0 basechar 0
AnchorPoint: "Anchor-0" 304 0 basechar 0
LayerCount: 2
Fore
SplineSet
206 60 m 2
 25 0 l 1
 21 120 l 1
 185 178 l 1
 48 592 l 1
 138 592 l 1
 279 225 l 1
 332 265 358 316 371 375 c 2
 417 592 l 1
 507 592 l 1
 480 375 l 2
 462 239 372 115 206 60 c 2
EndSplineSet
EndChar

StartChar: uniFB21
Encoding: 64289 64289 96
Width: 870
GlyphClass: 2
Flags: MW
HStem: 0 21G<31 153 31 31 555 690 555 555>
VStem: 34 102 554 89
LayerCount: 2
Fore
SplineSet
33 592 m 1
 131 592 l 1
 455 249 l 1
 517 273 560 338 557 440 c 2
 551 592 l 1
 641 592 l 1
 646 446 l 2
 651 322 617 206 545 154 c 1
 690 0 l 1
 555 0 l 1
 234 364 l 1
 165 359 127 265 136 175 c 2
 153 0 l 1
 31 0 l 1
 37 193 l 2
 41 303 79 406 169 438 c 1
 33 592 l 1
EndSplineSet
EndChar

StartChar: uniFB22
Encoding: 64290 64290 97
Width: 796
GlyphClass: 2
Flags: MW
HStem: 0 21G<428 550 428 428> 503 84
VStem: 426 188
LayerCount: 2
Fore
SplineSet
425 507 m 1
 -12 499 l 1
 -15 582 l 1
 613 592 l 1
 616 512 l 1
 516 509 l 1
 550 0 l 1
 428 0 l 1
 425 507 l 1
EndSplineSet
EndChar

StartChar: uniFB23
Encoding: 64291 64291 98
Width: 938
GlyphClass: 2
Flags: MW
HStem: 0 21G<596 718 596 596> 519 83
VStem: 67 101<314 374>
LayerCount: 2
Fore
SplineSet
691 403 m 2
 718 0 l 1
 596 0 l 1
 594 385 l 2
 590 478 550 505 477 509 c 2
 67 529 l 1
 64 612 l 1
 480 592 l 2
 616 586 686 535 691 403 c 2
67 374 m 1
 168 374 l 1
 168 249 194 84 228 -23 c 1
 92 26 l 1
 80 116 67 254 67 374 c 1
EndSplineSet
EndChar

StartChar: uniFB24
Encoding: 64292 64292 99
Width: 804
GlyphClass: 2
Flags: MW
HStem: 0 132<30 346 346 352 30 30> 512 83<310 363.5>
VStem: 505 109
LayerCount: 2
Fore
SplineSet
307 512 m 2
 12 504 l 1
 9 587 l 1
 310 595 l 1
 470 595 608 469 614 298 c 0
 620 112 514 0 352 0 c 2
 30 0 l 1
 26 132 l 1
 346 132 l 2
 444 132 509 197 505 309 c 0
 502 400 420 512 307 512 c 2
EndSplineSet
EndChar

StartChar: uniFB25
Encoding: 64293 64293 100
Width: 744
GlyphClass: 2
Flags: MW
HStem: 511 84
VStem: -6 92<599 766 599 766 599 766>
LayerCount: 2
Fore
SplineSet
286 -14 m 1
 274 66 l 1
 359 115 390 203 420 344 c 0
 440 439 351 504 251 507 c 2
 -6 515 l 1
 -6 766 l 1
 86 766 l 1
 86 599 l 1
 273 592 l 2
 434 586 540 487 519 364 c 0
 489 187 439 54 286 -14 c 1
EndSplineSet
EndChar

StartChar: uniFB26
Encoding: 64294 64294 101
Width: 938
GlyphClass: 2
Flags: MW
HStem: 0 132<55 596 168 596 168 719> 509 83
VStem: 53 89
LayerCount: 2
Fore
SplineSet
55 0 m 1
 52 512 l 1
 49 582 l 1
 482 602 l 2
 618 608 683 545 692 413 c 2
 719 0 l 1
 55 0 l 1
168 132 m 1
 596 132 l 1
 595 395 l 2
 594 488 552 523 479 519 c 2
 143 499 l 1
 168 132 l 1
EndSplineSet
EndChar

StartChar: uniFB27
Encoding: 64295 64295 102
Width: 806
GlyphClass: 2
Flags: MW
HStem: 0 21G<487 609 487 487> 502 83
VStem: -8 617<0 579>
LayerCount: 2
Fore
SplineSet
582 404 m 2
 609 0 l 1
 487 0 l 1
 485 385 l 2
 484 469 449 512 367 509 c 2
 -5 496 l 1
 -8 579 l 1
 370 592 l 2
 507 597 577 536 582 404 c 2
EndSplineSet
EndChar

StartChar: uniFB28
Encoding: 64296 64296 103
Width: 956
GlyphClass: 2
Flags: MW
HStem: 0 132<22 76 76 86 22 22> 504 83
VStem: 127 112
LayerCount: 2
Fore
SplineSet
128 214 m 2
 126 499 l 1
 21 499 l 1
 18 582 l 1
 496 592 l 2
 632 595 702 535 707 403 c 2
 734 0 l 1
 612 0 l 1
 610 385 l 2
 607 470 574 512 492 509 c 2
 217 499 l 1
 239 180 l 1
 243 60 193 0 86 0 c 2
 22 0 l 1
 18 132 l 1
 76 132 l 2
 112 132 126 152 128 214 c 2
EndSplineSet
EndChar

StartChar: uniFB29
Encoding: 64297 64297 104
Width: 686
GlyphClass: 2
Flags: MW
HStem: 307 81<39 223 322 507 39 39>
VStem: 222 92
LayerCount: 2
Fore
SplineSet
509 307 m 1
 39 307 l 1
 37 388 l 1
 223 388 l 1
 221 592 l 1
 307 592 l 1
 322 388 l 1
 507 388 l 1
 509 307 l 1
EndSplineSet
EndChar

StartChar: uniFB2A
Encoding: 64298 64298 105
Width: 843
GlyphClass: 2
Flags: MW
HStem: 0 132<188 281 281 296 93 281> 660 75<594 611 591 614> 715 20G<591 611>
VStem: 302 90 570 67<698 698>
AnchorPoint: "Anchor-5" 628 536 basechar 0
AnchorPoint: "Anchor-4" -16 536 basechar 0
AnchorPoint: "Anchor-3" 372 536 basechar 0
AnchorPoint: "Anchor-2" 412 217 basechar 0
AnchorPoint: "Anchor-1" 92 0 basechar 0
AnchorPoint: "Anchor-0" 338 0 basechar 0
LayerCount: 2
Fore
SplineSet
604 660 m 0xd8
 584 660 571 671 570 698 c 0
 569 723 581 735 601 735 c 0xb8
 621 735 636 723 637 698 c 0
 638 673 624 660 604 660 c 0xd8
18 592 m 1
 108 592 l 1
 157 313 l 1
 220 336 294 370 299 460 c 2
 306 592 l 1
 396 592 l 1
 389 446 l 2
 383 311 271 241 176 205 c 1
 188 132 l 1
 281 132 l 2
 439 132 508 155 531 355 c 2
 557 592 l 1
 647 592 l 1
 640 355 l 2
 635 205 583 0 296 0 c 2
 93 0 l 1
 86 68 l 1
 85 68 l 1xb8
 18 592 l 1
EndSplineSet
EndChar

StartChar: uniFB2B
Encoding: 64299 64299 106
Width: 843
GlyphClass: 2
Flags: MW
HStem: 0 132<188 281 281 296 93 281> 660 75<50 67 47 70> 715 20G<47 67>
VStem: 26 66<698 698> 302 90
AnchorPoint: "Anchor-5" 628 536 basechar 0
AnchorPoint: "Anchor-4" -16 536 basechar 0
AnchorPoint: "Anchor-3" 372 536 basechar 0
AnchorPoint: "Anchor-2" 412 217 basechar 0
AnchorPoint: "Anchor-1" 92 0 basechar 0
AnchorPoint: "Anchor-0" 338 0 basechar 0
LayerCount: 2
Fore
SplineSet
60 660 m 0xd8
 40 660 27 671 26 698 c 0
 25 723 37 735 57 735 c 0xb8
 77 735 91 723 92 698 c 0
 93 673 80 660 60 660 c 0xd8
18 592 m 1
 108 592 l 1
 157 313 l 1
 220 336 294 370 299 460 c 2
 306 592 l 1
 396 592 l 1
 389 446 l 2
 383 311 271 241 176 205 c 1
 188 132 l 1
 281 132 l 2
 439 132 508 155 531 355 c 2
 557 592 l 1
 647 592 l 1
 640 355 l 2
 635 205 583 0 296 0 c 2
 93 0 l 1
 86 68 l 1
 85 68 l 1xb8
 18 592 l 1
EndSplineSet
EndChar

StartChar: uniFB2C
Encoding: 64300 64300 107
Width: 843
GlyphClass: 2
Flags: MW
HStem: 0 132<188 281 281 296 93 281> 176 95<395.5 412.5 392.5 415.5> 660 75<594 611 591 614> 715 20G<591 611>
VStem: 302 90 371 65<224 224> 570 67<698 698>
AnchorPoint: "Anchor-5" 628 536 basechar 0
AnchorPoint: "Anchor-4" -16 536 basechar 0
AnchorPoint: "Anchor-3" 372 536 basechar 0
AnchorPoint: "Anchor-2" 412 217 basechar 0
AnchorPoint: "Anchor-1" 92 0 basechar 0
AnchorPoint: "Anchor-0" 338 0 basechar 0
LayerCount: 2
Fore
SplineSet
604 660 m 0xea
 584 660 571 671 570 698 c 0
 569 723 581 735 601 735 c 0xda
 621 735 636 723 637 698 c 0
 638 673 624 660 604 660 c 0xea
18 592 m 1
 108 592 l 1
 157 313 l 1
 220 336 294 370 299 460 c 2
 306 592 l 1
 396 592 l 1
 389 446 l 2
 383 311 271 241 176 205 c 1
 188 132 l 1
 281 132 l 2
 439 132 508 155 531 355 c 2
 557 592 l 1
 647 592 l 1
 640 355 l 2
 635 205 583 0 296 0 c 2
 93 0 l 1
 86 68 l 1
 85 68 l 1xda
 18 592 l 1
406 176 m 0xd6
 385 176 373 187 371 224 c 0
 370 259 382 271 403 271 c 0
 422 271 435 259 436 224 c 0
 437 189 425 176 406 176 c 0xd6
EndSplineSet
EndChar

StartChar: uniFB2D
Encoding: 64301 64301 108
Width: 843
GlyphClass: 2
Flags: MW
HStem: 0 132<188 281 281 296 93 281> 176 95<395.5 412.5 392.5 415.5> 660 75<50 67 47 70> 715 20G<47 67>
VStem: 26 66<698 698> 302 90 371 65<224 224>
AnchorPoint: "Anchor-5" 628 536 basechar 0
AnchorPoint: "Anchor-4" -16 536 basechar 0
AnchorPoint: "Anchor-3" 372 536 basechar 0
AnchorPoint: "Anchor-2" 412 217 basechar 0
AnchorPoint: "Anchor-1" 92 0 basechar 0
AnchorPoint: "Anchor-0" 338 0 basechar 0
LayerCount: 2
Fore
SplineSet
60 660 m 0xec
 40 660 27 671 26 698 c 0
 25 723 37 735 57 735 c 0xdc
 77 735 91 723 92 698 c 0
 93 673 80 660 60 660 c 0xec
18 592 m 1
 108 592 l 1
 157 313 l 1
 220 336 294 370 299 460 c 2
 306 592 l 1
 396 592 l 1
 389 446 l 2
 383 311 271 241 176 205 c 1
 188 132 l 1
 281 132 l 2
 439 132 508 155 531 355 c 2
 557 592 l 1
 647 592 l 1
 640 355 l 2
 635 205 583 0 296 0 c 2
 93 0 l 1
 86 68 l 1
 85 68 l 1xdc
 18 592 l 1
406 176 m 0xda
 385 176 373 187 371 224 c 0
 370 259 382 271 403 271 c 0
 422 271 435 259 436 224 c 0
 437 189 425 176 406 176 c 0xda
EndSplineSet
EndChar

StartChar: uniFB2E
Encoding: 64302 64302 109
Width: 727
GlyphClass: 2
Flags: MW
HStem: -131 47<214 390 212 392 214 214> 0 21G<39 161 39 39 437 572 437 437>
VStem: 42 102 213 178 434 89
AnchorPoint: "Anchor-4" 0 536 basechar 0
AnchorPoint: "Anchor-3" 304 536 basechar 0
AnchorPoint: "Anchor-2" 250 158 basechar 0
AnchorPoint: "Anchor-1" 101 0 basechar 0
AnchorPoint: "Anchor-0" 298 0 basechar 0
LayerCount: 2
Fore
SplineSet
33 592 m 1
 131 592 l 1
 375 265 l 1
 420 295 440 353 437 440 c 2
 431 592 l 1
 521 592 l 1
 526 446 l 2
 531 329 503 229 440 178 c 1
 572 0 l 1
 437 0 l 1
 211 331 l 1
 163 310 136 250 144 175 c 2
 161 0 l 1
 39 0 l 1
 45 193 l 2
 49 294 83 375 160 407 c 1
 33 592 l 1
392 -131 m 1
 214 -131 l 1
 212 -84 l 1
 390 -84 l 1
 392 -131 l 1
EndSplineSet
EndChar

StartChar: uniFB2F
Encoding: 64303 64303 110
Width: 727
GlyphClass: 2
Flags: MW
HStem: -131 47<214 280 214 214 327 327 327 390 212 392> 0 21G<39 161 39 39 437 572 437 437>
VStem: 42 102 281 47 434 89
AnchorPoint: "Anchor-4" 0 536 basechar 0
AnchorPoint: "Anchor-3" 304 536 basechar 0
AnchorPoint: "Anchor-2" 250 158 basechar 0
AnchorPoint: "Anchor-1" 101 0 basechar 0
AnchorPoint: "Anchor-0" 298 0 basechar 0
LayerCount: 2
Fore
SplineSet
33 592 m 1
 131 592 l 1
 375 265 l 1
 420 295 440 353 437 440 c 2
 431 592 l 1
 521 592 l 1
 526 446 l 2
 531 329 503 229 440 178 c 1
 572 0 l 1
 437 0 l 1
 211 331 l 1
 163 310 136 250 144 175 c 2
 161 0 l 1
 39 0 l 1
 45 193 l 2
 49 294 83 375 160 407 c 1
 33 592 l 1
330 -214 m 1
 283 -214 l 1
 280 -131 l 1
 214 -131 l 1
 212 -84 l 1
 390 -84 l 1
 392 -131 l 1
 327 -131 l 1
 330 -214 l 1
EndSplineSet
EndChar

StartChar: uniFB30
Encoding: 64304 64304 111
Width: 727
GlyphClass: 2
Flags: MW
HStem: 0 21G<39 161 39 39 437 572 437 437> 117 95<235.5 252.5 232.5 255.5>
VStem: 42 102 211 65<165 165> 434 89
AnchorPoint: "Anchor-4" 0 536 basechar 0
AnchorPoint: "Anchor-3" 304 536 basechar 0
AnchorPoint: "Anchor-2" 250 158 basechar 0
AnchorPoint: "Anchor-1" 101 0 basechar 0
AnchorPoint: "Anchor-0" 298 0 basechar 0
LayerCount: 2
Fore
SplineSet
33 592 m 1
 131 592 l 1
 375 265 l 1
 420 295 440 353 437 440 c 2
 431 592 l 1
 521 592 l 1
 526 446 l 2
 531 329 503 229 440 178 c 1
 572 0 l 1
 437 0 l 1
 211 331 l 1
 163 310 136 250 144 175 c 2
 161 0 l 1
 39 0 l 1
 45 193 l 2
 49 294 83 375 160 407 c 1
 33 592 l 1
246 117 m 0
 225 117 213 128 211 165 c 0
 210 200 222 212 243 212 c 0
 262 212 275 200 276 165 c 0
 278 130 265 117 246 117 c 0
EndSplineSet
EndChar

StartChar: uniFB31
Encoding: 64305 64305 112
Width: 650
GlyphClass: 2
Flags: MW
HStem: 0 132<30 295 406 523 30 30> 259 95<170.5 187.5 167.5 190.5> 514 83
VStem: 146 65<307 307> 331 97<349.5 431.5>
AnchorPoint: "Anchor-4" 0 536 basechar 0
AnchorPoint: "Anchor-3" 217 536 basechar 0
AnchorPoint: "Anchor-2" 190 300 basechar 0
AnchorPoint: "Anchor-1" 30 0 basechar 0
AnchorPoint: "Anchor-0" 274 0 basechar 0
LayerCount: 2
Fore
SplineSet
527 0 m 1
 30 0 l 1
 26 132 l 1
 295 132 l 1
 317 207 331 278 331 385 c 0
 331 478 287 505 214 509 c 2
 12 519 l 1
 9 602 l 1
 217 592 l 2
 353 586 428 536 428 404 c 0
 428 295 417 214 406 132 c 1
 523 132 l 1
 527 0 l 1
181 259 m 0
 160 259 148 270 146 307 c 0
 145 342 157 354 178 354 c 0
 197 354 210 342 211 307 c 0
 213 272 200 259 181 259 c 0
EndSplineSet
EndChar

StartChar: uniFB32
Encoding: 64306 64306 113
Width: 416
GlyphClass: 2
Flags: MW
HStem: 0 21G<244 347 244 244> 301 95<95.5 111.5 91.5 115.5> 506 83
VStem: 71 65<349 349>
AnchorPoint: "Anchor-4" 0 536 basechar 0
AnchorPoint: "Anchor-3" 175 536 basechar 0
AnchorPoint: "Anchor-2" 116 342 basechar 0
AnchorPoint: "Anchor-1" 15 0 basechar 0
AnchorPoint: "Anchor-0" 176 0 basechar 0
LayerCount: 2
Fore
SplineSet
202 354 m 2
 191 447 l 1
 190 494 170 511 131 509 c 2
 35 504 l 1
 32 587 l 1
 154 592 l 2
 225 595 268 550 280 452 c 2
 311 200 l 1
 347 0 l 1
 244 0 l 1
 221 224 l 1
 16 -13 l 1
 11 124 l 1
 201 329 l 1
 202 337 202 345 202 354 c 2
106 301 m 0
 85 301 72 312 71 349 c 0
 70 384 81 396 102 396 c 0
 121 396 135 384 136 349 c 0
 137 314 125 301 106 301 c 0
EndSplineSet
EndChar

StartChar: uniFB33
Encoding: 64307 64307 114
Width: 639
GlyphClass: 2
Flags: MW
HStem: 0 21G<302 424 302 302> 259 95<144.5 161.5 141.5 164.5> 515 81
VStem: 120 65<307 307> 300 188
AnchorPoint: "Anchor-4" -12 536 basechar 0
AnchorPoint: "Anchor-3" 254 536 basechar 0
AnchorPoint: "Anchor-2" 164 300 basechar 0
AnchorPoint: "Anchor-1" 164 0 basechar 0
AnchorPoint: "Anchor-0" 362 0 basechar 0
LayerCount: 2
Fore
SplineSet
490 509 m 1
 390 511 l 1
 390 509 l 1
 424 0 l 1
 302 0 l 1
 299 512 l 1
 -8 518 l 1
 -11 601 l 1
 487 592 l 1
 490 509 l 1
155 259 m 0
 134 259 122 270 120 307 c 0
 119 342 131 354 152 354 c 0
 171 354 184 342 185 307 c 0
 187 272 174 259 155 259 c 0
EndSplineSet
EndChar

StartChar: uniFB34
Encoding: 64308 64308 115
Width: 782
GlyphClass: 2
Flags: MW
HStem: 0 21G<466 588 466 466> 258 95<299.5 316.5 296.5 319.5> 506 83
VStem: 67 101<294 354> 275 65<306 306>
AnchorPoint: "Anchor-4" 0 536 basechar 0
AnchorPoint: "Anchor-3" 301 536 basechar 0
AnchorPoint: "Anchor-2" 329 300 basechar 0
AnchorPoint: "Anchor-1" 85 0 basechar 0
AnchorPoint: "Anchor-0" 329 0 basechar 0
LayerCount: 2
Fore
SplineSet
561 403 m 2
 588 0 l 1
 466 0 l 1
 464 385 l 2
 460 478 420 510 347 509 c 2
 67 504 l 1
 64 587 l 1
 350 592 l 2
 486 594 556 535 561 403 c 2
67 354 m 1
 168 354 l 1
 168 229 194 84 228 -23 c 1
 92 26 l 1
 80 116 67 234 67 354 c 1
310 258 m 0
 289 258 277 269 275 306 c 0
 274 341 286 353 307 353 c 0
 326 353 339 341 340 306 c 0
 342 271 329 258 310 258 c 0
EndSplineSet
EndChar

StartChar: uniFB35
Encoding: 64309 64309 116
Width: 312
GlyphClass: 2
Flags: MW
HStem: 0 21G<69 69 69 191> 259 95<-24.5 -7.5 -27.5 -4.5>
VStem: -49 65<307 307> 67 84
AnchorPoint: "Anchor-4" 130 536 basechar 0
AnchorPoint: "Anchor-3" 130 536 basechar 0
AnchorPoint: "Anchor-2" 14 300 basechar 0
AnchorPoint: "Anchor-1" 14 0 basechar 0
AnchorPoint: "Anchor-0" 130 0 basechar 0
LayerCount: 2
Fore
SplineSet
69 0 m 1
 65 592 l 1
 151 592 l 1
 191 0 l 1
 69 0 l 1
-14 259 m 0
 -35 259 -47 270 -49 307 c 0
 -50 342 -38 354 -17 354 c 0
 2 354 15 342 16 307 c 0
 18 272 5 259 -14 259 c 0
EndSplineSet
EndChar

StartChar: uniFB36
Encoding: 64310 64310 117
Width: 346
GlyphClass: 2
Flags: MW
HStem: 0 21G<84 206 84 84> 259 95<-9.5 7.5 -12.5 10.5> 512 83
VStem: -34 65<307 307> 82 100<360 360 360 397> 157 98
AnchorPoint: "Anchor-4" -23 536 basechar 0
AnchorPoint: "Anchor-3" 139 536 basechar 0
AnchorPoint: "Anchor-2" -21 300 basechar 0
AnchorPoint: "Anchor-1" -21 0 basechar 0
AnchorPoint: "Anchor-0" 133 0 basechar 0
LayerCount: 2
Fore
SplineSet
182 360 m 2xf8
 206 0 l 1
 84 0 l 1
 82 349 l 2xf8
 82 445 130 488 157 506 c 1
 157 509 l 1
 7 515 l 1
 4 598 l 1
 254 592 l 1
 257 516 l 1xf4
 251 512 241 504 228 493 c 0
 201 470 180 431 182 360 c 2xf8
1 259 m 0
 -20 259 -32 270 -34 307 c 0
 -35 342 -23 354 -2 354 c 0
 17 354 30 342 31 307 c 0
 33 272 20 259 1 259 c 0
EndSplineSet
Ligature2: "'ccmp' Glyph Composition/Decomposition lookup 2 subtable" uni05D6 uni05BC
EndChar

StartChar: uniFB38
Encoding: 64312 64312 118
Width: 808
GlyphClass: 2
Flags: MW
HStem: -13 132<289 422 289 472> 259 95<327.5 344.5 324.5 347.5> 518 84<403.5 437.5>
VStem: 56 85 303 65<307 307> 505 98
AnchorPoint: "Anchor-4" 0 536 basechar 0
AnchorPoint: "Anchor-3" 347 536 basechar 0
AnchorPoint: "Anchor-2" 347 300 basechar 0
AnchorPoint: "Anchor-1" 85 0 basechar 0
AnchorPoint: "Anchor-0" 350 0 basechar 0
LayerCount: 2
Fore
SplineSet
423 602 m 0
 529 602 594 545 603 413 c 0
 615 220 600 -13 344 -13 c 0
 182 -13 64 99 57 285 c 1
 56 602 l 1
 142 602 l 1
 165 296 l 2
 174 181 240 119 338 119 c 0
 506 119 510 272 505 389 c 0
 502 482 459 518 416 518 c 0
 385 518 330 503 302 486 c 1
 299 572 l 1
 306 576 315 580 326 583 c 0
 350 593 384 602 423 602 c 0
338 259 m 0
 317 259 305 270 303 307 c 0
 302 342 314 354 335 354 c 0
 354 354 367 342 368 307 c 0
 370 272 357 259 338 259 c 0
EndSplineSet
EndChar

StartChar: uniFB39
Encoding: 64313 64313 119
Width: 265
GlyphClass: 2
Flags: MW
HStem: 367 95<-38.5 -21.5 -41.5 -18.5>
VStem: -63 66<415 415> 43 94
AnchorPoint: "Anchor-4" -14 536 basechar 0
AnchorPoint: "Anchor-3" 106 536 basechar 0
AnchorPoint: "Anchor-2" -5 408 basechar 0
AnchorPoint: "Anchor-1" -25 0 basechar 0
AnchorPoint: "Anchor-0" 106 0 basechar 0
LayerCount: 2
Fore
SplineSet
99 213 m 1
 45 213 l 1
 42 592 l 1
 128 592 l 1
 147 304 l 1
 99 213 l 1
-28 367 m 0
 -49 367 -61 378 -63 415 c 0
 -64 450 -52 462 -31 462 c 0
 -12 462 1 450 3 415 c 0
 4 380 -9 367 -28 367 c 0
EndSplineSet
Ligature2: "'ccmp' Glyph Composition/Decomposition lookup 2 subtable" uni05D9 uni05BC
EndChar

StartChar: uniFB3A
Encoding: 64314 64314 120
Width: 654
GlyphClass: 2
Flags: MW
HStem: 259 95<178.5 195.5 175.5 198.5> 503 84
VStem: 154 65<307 307> 364 100
AnchorPoint: "Anchor-4" -12 536 basechar 0
AnchorPoint: "Anchor-3" 245 536 basechar 0
AnchorPoint: "Anchor-2" 198 300 basechar 0
AnchorPoint: "Anchor-1" 25 0 basechar 0
AnchorPoint: "Anchor-0" 198 240 basechar 0
LayerCount: 2
Fore
SplineSet
515 509 m 1
 453 508 461 426 471 290 c 2
 508 -240 l 1
 364 -240 l 1
 364 293 l 2
 364 424 369 473 387 507 c 1
 -3 499 l 1
 -6 582 l 1
 512 592 l 1
 515 509 l 1
189 259 m 0
 168 259 156 270 154 307 c 0
 153 342 165 354 186 354 c 0
 205 354 218 342 219 307 c 0
 221 272 208 259 189 259 c 0
EndSplineSet
EndChar

StartChar: uniFB3B
Encoding: 64315 64315 121
Width: 648
GlyphClass: 2
Flags: MW
HStem: 0 132<30 226 226 232 30 30> 259 95<194.5 211.5 191.5 214.5> 506 83
VStem: 170 65<307 307> 385 109
AnchorPoint: "Anchor-4" -12 536 basechar 0
AnchorPoint: "Anchor-3" 207 536 basechar 0
AnchorPoint: "Anchor-2" 214 300 basechar 0
AnchorPoint: "Anchor-1" 40 0 basechar 0
AnchorPoint: "Anchor-0" 231 0 basechar 0
LayerCount: 2
Fore
SplineSet
187 509 m 2
 12 504 l 1
 9 587 l 1
 190 592 l 2
 350 596 488 469 494 298 c 0
 500 112 394 0 232 0 c 2
 30 0 l 1
 26 132 l 1
 226 132 l 2
 324 132 389 197 385 309 c 0
 382 400 300 512 187 509 c 2
205 259 m 0
 184 259 172 270 170 307 c 0
 169 342 181 354 202 354 c 0
 221 354 234 342 235 307 c 0
 237 272 224 259 205 259 c 0
EndSplineSet
EndChar

StartChar: uniFB3C
Encoding: 64316 64316 122
Width: 612
GlyphClass: 2
Flags: MW
HStem: 259 95<145.5 162.5 142.5 165.5> 512 83
VStem: -6 92<599 766 599 766 599 766> 121 65<307 307>
AnchorPoint: "Anchor-4" -37 536 basechar 0
AnchorPoint: "Anchor-3" 290 536 basechar 0
AnchorPoint: "Anchor-2" 165 300 basechar 0
AnchorPoint: "Anchor-1" 225 0 basechar 0
AnchorPoint: "Anchor-0" 241 0 basechar 0
LayerCount: 2
Fore
SplineSet
216 -14 m 1
 204 132 l 1
 289 181 320 223 350 344 c 0
 373 438 281 506 181 509 c 2
 -6 515 l 1
 -6 766 l 1
 86 766 l 1
 86 599 l 1
 203 592 l 2
 364 582 470 487 449 364 c 0
 419 187 369 54 216 -14 c 1
156 259 m 0
 135 259 123 270 121 307 c 0
 120 342 132 354 153 354 c 0
 172 354 185 342 186 307 c 0
 188 272 175 259 156 259 c 0
EndSplineSet
EndChar

StartChar: uniFB3E
Encoding: 64318 64318 123
Width: 715
GlyphClass: 2
Flags: MW
HStem: 0 132<26 422 258 422 258 507 246 422> 259 95<295.5 312.5 292.5 315.5> 522 83<293.5 353.5>
VStem: 26 90<592 592> 271 65<307 307> 435 98<239.5 366>
AnchorPoint: "Anchor-4" 0 536 basechar 0
AnchorPoint: "Anchor-3" 346 536 basechar 0
AnchorPoint: "Anchor-2" 325 300 basechar 0
AnchorPoint: "Anchor-1" 95 0 basechar 0
AnchorPoint: "Anchor-0" 325 0 basechar 0
LayerCount: 2
Fore
SplineSet
116 592 m 1
 145 507 l 1
 188 566 253 605 334 605 c 0
 453 605 533 500 533 294 c 0
 533 170 515 52 507 0 c 1
 246 0 l 1
 258 132 l 1
 422 132 l 1
 425 168 435 188 435 291 c 0
 435 441 393 522 314 522 c 0
 270 522 203 486 159 393 c 0
 109 288 98 174 148 0 c 1
 26 0 l 1
 23 166 23 279 93 429 c 1
 26 592 l 1
 116 592 l 1
306 259 m 0
 285 259 273 270 271 307 c 0
 270 342 282 354 303 354 c 0
 322 354 335 342 336 307 c 0
 338 272 325 259 306 259 c 0
EndSplineSet
EndChar

StartChar: uniFB40
Encoding: 64320 64320 124
Width: 476
GlyphClass: 2
Flags: MW
HStem: 0 132<30 211 26 334 30 30> 259 95<104.5 121.5 101.5 124.5> 504 83
VStem: 80 65<307 307>
AnchorPoint: "Anchor-4" 0 536 basechar 0
AnchorPoint: "Anchor-3" 184 536 basechar 0
AnchorPoint: "Anchor-2" 124 300 basechar 0
AnchorPoint: "Anchor-1" 7 0 basechar 0
AnchorPoint: "Anchor-0" 184 0 basechar 0
LayerCount: 2
Fore
SplineSet
304 456 m 2
 334 0 l 1
 30 0 l 1
 26 132 l 1
 211 132 l 1
 210 445 l 2
 209 492 190 512 151 509 c 2
 45 500 l 1
 42 583 l 1
 174 592 l 2
 245 597 298 555 304 456 c 2
115 259 m 0
 94 259 82 270 80 307 c 0
 79 342 91 354 112 354 c 0
 131 354 144 342 145 307 c 0
 147 272 134 259 115 259 c 0
EndSplineSet
EndChar

StartChar: uniFB41
Encoding: 64321 64321 125
Width: 817
GlyphClass: 2
Flags: MW
HStem: -13 134<285 399 285 440.5> 259 95<335.5 352.5 332.5 355.5> 511 78
VStem: 70 91 311 65<307 307> 528 93
AnchorPoint: "Anchor-4" -12 536 basechar 0
AnchorPoint: "Anchor-3" 355 536 basechar 0
AnchorPoint: "Anchor-2" 355 300 basechar 0
AnchorPoint: "Anchor-1" 79 0 basechar 0
AnchorPoint: "Anchor-0" 357 0 basechar 0
LayerCount: 2
Fore
SplineSet
17 502 m 1
 14 585 l 1
 330 595 l 2
 514 601 615 473 621 292 c 0
 628 100 524 -13 357 -13 c 0
 195 -13 77 99 70 285 c 0
 68 355 79 449 91 509 c 1
 17 502 l 1
181 511 m 1
 174 476 158 402 161 308 c 1
 170 193 236 121 334 121 c 0
 464 121 533 154 528 294 c 0
 522 459 441 514 317 512 c 2
 181 511 l 1
346 259 m 0
 325 259 313 270 311 307 c 0
 310 342 322 354 343 354 c 0
 362 354 375 342 376 307 c 0
 378 272 365 259 346 259 c 0
EndSplineSet
EndChar

StartChar: uniFB43
Encoding: 64323 64323 126
Width: 699
GlyphClass: 2
Flags: MW
HStem: 233 102<152 179.5> 237 95<307.5 323.5 303.5 327.5> 513 85
VStem: -9 94 283 65<285 285> 407 142<-240 299>
AnchorPoint: "Anchor-4" -24 536 basechar 0
AnchorPoint: "Anchor-3" 262 536 basechar 0
AnchorPoint: "Anchor-2" 325 256 basechar 0
AnchorPoint: "Anchor-1" 10 0 basechar 0
LayerCount: 2
Fore
SplineSet
88 452 m 2xbc
 94 374 123 335 181 335 c 0
 192 335 203 336 214 337 c 1
 218 236 l 1
 203 235 186 233 173 233 c 0
 55 233 -4 330 -8 444 c 2
 -9 604 l 1
 210 592 l 2
 370 583 500 461 512 290 c 2
 549 -240 l 1
 407 -240 l 1
 407 299 l 2
 406 390 320 502 207 509 c 2
 83 517 l 1
 88 452 l 2xbc
318 237 m 0x78
 297 237 284 248 283 285 c 0
 282 320 293 332 314 332 c 0
 333 332 347 320 348 285 c 0
 349 250 337 237 318 237 c 0x78
EndSplineSet
EndChar

StartChar: uniFB44
Encoding: 64324 64324 127
Width: 723
GlyphClass: 2
Flags: MW
HStem: 0 132<49 286 286 292 49 49> 233 102<192 219.5> 514 83
VStem: 31 94 320 65<286 286> 445 109
AnchorPoint: "Anchor-4" -6 536 basechar 0
AnchorPoint: "Anchor-3" 271 536 basechar 0
AnchorPoint: "Anchor-2" 363 279 basechar 0
AnchorPoint: "Anchor-1" 50 0 basechar 0
AnchorPoint: "Anchor-0" 270 0 basechar 0
LayerCount: 2
Fore
SplineSet
123 519 m 1
 128 432 l 2
 132 354 163 335 221 335 c 0
 232 335 243 336 254 337 c 1
 258 236 l 1
 243 235 226 233 213 233 c 0
 95 233 36 310 32 424 c 2
 31 602 l 1
 250 592 l 2
 410 585 548 469 554 298 c 0
 560 112 454 0 292 0 c 2
 49 0 l 1
 45 132 l 1
 286 132 l 2
 384 132 449 197 445 309 c 0
 442 400 360 500 247 509 c 2
 123 519 l 1
355 236 m 0
 334 236 321 247 320 286 c 0
 319 323 330 335 351 335 c 0
 370 335 384 323 385 286 c 0
 386 249 374 236 355 236 c 0
EndSplineSet
EndChar

StartChar: uniFB46
Encoding: 64326 64326 128
Width: 670
GlyphClass: 2
Flags: MW
HStem: 0 132<25 316 21 482 25 25> 202 95<99.5 116.5 96.5 119.5>
VStem: 75 65<250 250> 403 90
AnchorPoint: "Anchor-4" 0 536 basechar 0
AnchorPoint: "Anchor-3" 278 536 basechar 0
AnchorPoint: "Anchor-2" 117 243 basechar 0
AnchorPoint: "Anchor-1" 25 0 basechar 0
AnchorPoint: "Anchor-0" 253 0 basechar 0
LayerCount: 2
Fore
SplineSet
482 0 m 1
 25 0 l 1
 21 132 l 1
 316 132 l 1
 3 592 l 1
 101 592 l 1
 320 294 l 1
 370 322 409 369 406 460 c 2
 401 592 l 1
 491 592 l 1
 496 446 l 2
 500 332 454 251 385 206 c 1
 479 78 l 1
 482 0 l 1
110 202 m 0
 89 202 77 213 75 250 c 0
 74 285 86 297 107 297 c 0
 126 297 139 285 140 250 c 0
 142 215 129 202 110 202 c 0
EndSplineSet
EndChar

StartChar: uniFB47
Encoding: 64327 64327 129
Width: 756
GlyphClass: 2
Flags: MW
HStem: 0 21G<313 438 313 313> 259 95<273.5 290.5 270.5 293.5> 504 83
VStem: 60 101 249 65<307 307>
AnchorPoint: "Anchor-4" 0 536 basechar 0
AnchorPoint: "Anchor-3" 338 536 basechar 0
AnchorPoint: "Anchor-2" 293 300 basechar 0
AnchorPoint: "Anchor-1" 36 0 basechar 0
AnchorPoint: "Anchor-0" 361 0 basechar 0
LayerCount: 2
Fore
SplineSet
438 0 m 1
 313 0 l 1
 483 499 l 1
 62 509 l 1
 59 592 l 1
 574 582 l 1
 577 514 l 1
 438 0 l 1
60 -240 m 1
 61 362 l 1
 162 362 l 1
 202 -240 l 1
 60 -240 l 1
284 259 m 0
 263 259 251 270 249 307 c 0
 248 342 260 354 281 354 c 0
 300 354 313 342 314 307 c 0
 316 272 303 259 284 259 c 0
EndSplineSet
EndChar

StartChar: uniFB48
Encoding: 64328 64328 130
Width: 650
GlyphClass: 2
Flags: MW
HStem: 0 21G<357 479 357 357> 259 95<174.5 191.5 171.5 194.5> 504 83
VStem: 150 65<307 307>
AnchorPoint: "Anchor-4" -12 536 basechar 0
AnchorPoint: "Anchor-3" 234 536 basechar 0
AnchorPoint: "Anchor-2" 194 300 basechar 0
AnchorPoint: "Anchor-1" 194 0 basechar 0
AnchorPoint: "Anchor-0" 417 0 basechar 0
LayerCount: 2
Fore
SplineSet
452 404 m 2
 479 0 l 1
 357 0 l 1
 355 385 l 2
 353 469 319 512 237 509 c 2
 -3 499 l 1
 -6 582 l 1
 240 592 l 2
 377 598 447 536 452 404 c 2
185 259 m 0
 164 259 152 270 150 307 c 0
 149 342 161 354 182 354 c 0
 201 354 214 342 215 307 c 0
 217 272 204 259 185 259 c 0
EndSplineSet
EndChar

StartChar: uniFB49
Encoding: 64329 64329 131
Width: 843
GlyphClass: 2
Flags: MW
HStem: 0 132<188 281 281 296 93 281> 176 95<395.5 412.5 392.5 415.5>
VStem: 302 90 371 65<224 224>
AnchorPoint: "Anchor-5" 628 536 basechar 0
AnchorPoint: "Anchor-4" -16 536 basechar 0
AnchorPoint: "Anchor-3" 372 536 basechar 0
AnchorPoint: "Anchor-2" 412 217 basechar 0
AnchorPoint: "Anchor-1" 92 0 basechar 0
AnchorPoint: "Anchor-0" 338 0 basechar 0
LayerCount: 2
Fore
SplineSet
18 592 m 1xe0
 108 592 l 1
 157 313 l 1
 220 336 294 370 299 460 c 2
 306 592 l 1
 396 592 l 1
 389 446 l 2
 383 311 271 241 176 205 c 1
 188 132 l 1
 281 132 l 2
 439 132 508 155 531 355 c 2
 557 592 l 1
 647 592 l 1
 640 355 l 2
 635 205 583 0 296 0 c 2
 93 0 l 1
 86 68 l 1
 85 68 l 1
 18 592 l 1xe0
406 176 m 0xd0
 385 176 373 187 371 224 c 0
 370 259 382 271 403 271 c 0
 422 271 435 259 436 224 c 0
 437 189 425 176 406 176 c 0xd0
EndSplineSet
EndChar

StartChar: uniFB4A
Encoding: 64330 64330 132
Width: 812
GlyphClass: 2
Flags: MW
HStem: 0 132<22 76 76 86 22 22> 259 95<352.5 369.5 349.5 372.5> 505 81
VStem: 127 101 328 65<307 307>
AnchorPoint: "Anchor-4" 0 536 basechar 0
AnchorPoint: "Anchor-3" 326 536 basechar 0
AnchorPoint: "Anchor-2" 362 300 basechar 0
AnchorPoint: "Anchor-1" 35 0 basechar 0
AnchorPoint: "Anchor-0" 362 0 basechar 0
LayerCount: 2
Fore
SplineSet
128 214 m 2
 126 497 l 1
 21 492 l 1
 18 582 l 1
 376 592 l 2
 512 596 582 535 587 403 c 2
 614 0 l 1
 492 0 l 1
 490 385 l 2
 487 470 454 513 372 509 c 2
 217 502 l 1
 239 180 l 1
 243 60 193 0 86 0 c 2
 22 0 l 1
 18 132 l 1
 76 132 l 2
 112 132 126 152 128 214 c 2
363 259 m 0
 342 259 330 270 328 307 c 0
 327 342 339 354 360 354 c 0
 379 354 392 342 393 307 c 0
 395 272 382 259 363 259 c 0
EndSplineSet
EndChar

StartChar: uniFB4B
Encoding: 64331 64331 133
Width: 312
GlyphClass: 2
Flags: MW
HStem: 0 21G<69 69 69 191> 660 75<97 114 94 117> 715 20G<94 114>
VStem: 67 84 73 66<698 698>
AnchorPoint: "Anchor-4" 130 536 basechar 0
AnchorPoint: "Anchor-3" 130 536 basechar 0
AnchorPoint: "Anchor-2" 14 300 basechar 0
AnchorPoint: "Anchor-1" 14 0 basechar 0
AnchorPoint: "Anchor-0" 130 0 basechar 0
LayerCount: 2
Fore
SplineSet
107 660 m 0xc8
 87 660 74 671 73 698 c 0
 72 723 84 735 104 735 c 0xa8
 124 735 138 723 139 698 c 0
 140 673 127 660 107 660 c 0xc8
69 0 m 1xb0
 65 592 l 1
 151 592 l 1
 191 0 l 1
 69 0 l 1xb0
EndSplineSet
EndChar

StartChar: uniFB4C
Encoding: 64332 64332 134
Width: 662
GlyphClass: 2
Flags: MW
HStem: 0 132<30 295 406 523 30 30> 514 83 674 47<95 291 93 293 95 95>
VStem: 94 198 331 97<349.5 431.5>
AnchorPoint: "Anchor-4" 0 536 basechar 0
AnchorPoint: "Anchor-3" 217 536 basechar 0
AnchorPoint: "Anchor-2" 190 300 basechar 0
AnchorPoint: "Anchor-1" 30 0 basechar 0
AnchorPoint: "Anchor-0" 274 0 basechar 0
LayerCount: 2
Fore
SplineSet
293 674 m 1
 95 674 l 1
 93 721 l 1
 291 721 l 1
 293 674 l 1
527 0 m 1
 30 0 l 1
 26 132 l 1
 295 132 l 1
 317 207 331 278 331 385 c 0
 331 478 287 505 214 509 c 2
 12 519 l 1
 9 602 l 1
 217 592 l 2
 353 586 428 536 428 404 c 0
 428 295 417 214 406 132 c 1
 523 132 l 1
 527 0 l 1
EndSplineSet
EndChar

StartChar: uniFB4D
Encoding: 64333 64333 135
Width: 648
GlyphClass: 2
Flags: MW
HStem: 0 132<30 226 226 232 30 30> 506 83 674 47<85 281 83 283 85 85>
VStem: 84 198 385 109
AnchorPoint: "Anchor-4" -12 536 basechar 0
AnchorPoint: "Anchor-3" 207 536 basechar 0
AnchorPoint: "Anchor-2" 214 300 basechar 0
AnchorPoint: "Anchor-1" 40 0 basechar 0
AnchorPoint: "Anchor-0" 231 0 basechar 0
LayerCount: 2
Fore
SplineSet
283 674 m 1
 85 674 l 1
 83 721 l 1
 281 721 l 1
 283 674 l 1
187 509 m 2
 12 504 l 1
 9 587 l 1
 190 592 l 2
 350 596 488 469 494 298 c 0
 500 112 394 0 232 0 c 2
 30 0 l 1
 26 132 l 1
 226 132 l 2
 324 132 389 197 385 309 c 0
 382 400 300 512 187 509 c 2
EndSplineSet
EndChar

StartChar: uniFB4E
Encoding: 64334 64334 136
Width: 723
GlyphClass: 2
Flags: MW
HStem: 0 132<49 286 286 292 49 49> 233 102<192 219.5> 514 83 674 47<149 345 147 347 149 149>
VStem: 31 94 148 198 445 109
AnchorPoint: "Anchor-4" -6 536 basechar 0
AnchorPoint: "Anchor-3" 271 536 basechar 0
AnchorPoint: "Anchor-2" 363 279 basechar 0
AnchorPoint: "Anchor-1" 50 0 basechar 0
AnchorPoint: "Anchor-0" 270 0 basechar 0
LayerCount: 2
Fore
SplineSet
347 674 m 1
 149 674 l 1
 147 721 l 1
 345 721 l 1
 347 674 l 1
123 519 m 1xfa
 128 432 l 2
 132 354 163 335 221 335 c 0
 232 335 243 336 254 337 c 1
 258 236 l 1
 243 235 226 233 213 233 c 0
 95 233 36 310 32 424 c 2
 31 602 l 1
 250 592 l 2
 410 585 548 469 554 298 c 0
 560 112 454 0 292 0 c 2
 49 0 l 1
 45 132 l 1
 286 132 l 2
 384 132 449 197 445 309 c 0
 442 400 360 500 247 509 c 2
 123 519 l 1xfa
EndSplineSet
EndChar

StartChar: uniFB4F
Encoding: 64335 64335 137
Width: 711
GlyphClass: 3
Flags: MW
HStem: 0 21G<437 572 437 437> 509 83<-8 117 117 120 -8 -8>
VStem: -13 89 434 89
LayerCount: 2
Fore
SplineSet
120 509 m 1
 -8 509 l 1
 -11 592 l 1
 117 592 l 1
 120 509 l 1
81 546 m 1
 -9 546 l 1
 -17 760 l 1
 73 760 l 1
 81 546 l 1
390 150 m 1
 346 250 l 1
 411 274 440 336 437 440 c 2
 431 592 l 1
 521 592 l 1
 526 446 l 2
 531 302 489 184 390 150 c 1
33 592 m 1
 131 592 l 1
 572 0 l 1
 437 0 l 1
 33 592 l 1
EndSplineSet
Ligature2: "'dlig' Discretionary Ligatures lookup 1 subtable" uni05D0 uni05DC
EndChar

StartChar: hyphen
Encoding: 45 45 138
Width: 782
GlyphClass: 2
Flags: MW
HStem: -155 95<524.5 541.5 521.5 544.5> 0 132<55 464 168 464 168 587> 519 83<347 350>
VStem: 52 91 500 67<4.29497e+09 4.29497e+09>
LayerCount: 2
Fore
SplineSet
55 0 m 1
 49 582 l 1
 350 602 l 2
 486 611 551 545 560 413 c 2
 587 0 l 1
 55 0 l 1
168 132 m 1
 464 132 l 1
 463 395 l 2
 462 488 420 526 347 519 c 2
 143 499 l 1
 168 132 l 1
535 -155 m 0
 514 -155 501 -144 500 -107 c 0
 499 -72 511 -60 532 -60 c 0
 551 -60 566 -72 567 -107 c 0
 568 -142 554 -155 535 -155 c 0
EndSplineSet
EndChar

StartChar: uni05B1200D05BD
Encoding: 65537 -1 139
Width: 0
GlyphClass: 1
Flags: MW
HStem: -263 95<369.5 389.5> -262 95<133.5 153.5> -252 182<269 316 269 316> -155 95<72.5 92.5 195.5 215.5 368.5 388.5>
VStem: 48 70<-124.5 -89.5 -124.5 -89.5> 109 70<-231.5 -196.5 -231.5 -196.5> 171 70<-124.5 -89.5 -124.5 -89.5> 269 47<-252 -70> 344 70<-124.5 -89.5 -124.5 -89.5>
AnchorPoint: "Anchor-6" 232 0 mark 0
AnchorPoint: "Anchor-0" 232 0 mark 0
LayerCount: 2
Fore
SplineSet
83 -155 m 0x19
 62 -155 48 -144 48 -107 c 0
 48 -72 62 -60 83 -60 c 0
 102 -60 118 -72 118 -107 c 0
 118 -142 102 -155 83 -155 c 0x19
206 -155 m 0x1280
 185 -155 171 -144 171 -107 c 0
 171 -72 185 -60 206 -60 c 0
 225 -60 241 -72 241 -107 c 0
 241 -142 225 -155 206 -155 c 0x1280
379 -155 m 0
 358 -155 344 -144 344 -107 c 0
 344 -72 358 -60 379 -60 c 0
 398 -60 414 -72 414 -107 c 0
 414 -142 398 -155 379 -155 c 0
316 -252 m 1x21
 269 -252 l 1
 269 -70 l 1
 316 -70 l 1
 316 -252 l 1x21
144 -262 m 0x44
 123 -262 109 -251 109 -214 c 0
 109 -179 123 -167 144 -167 c 0
 163 -167 179 -179 179 -214 c 0
 179 -249 163 -262 144 -262 c 0x44
380 -263 m 0x8080
 359 -263 345 -252 345 -215 c 0
 345 -180 359 -168 380 -168 c 0
 399 -168 415 -180 415 -215 c 0
 415 -250 399 -263 380 -263 c 0x8080
EndSplineSet
Ligature2: "'ccmp' Glyph Composition/Decomposition lookup 2 subtable" uni05B1 uni200D uni05BD
EndChar

StartChar: uni05B2200D05BD
Encoding: 65538 -1 140
Width: 0
GlyphClass: 1
Flags: MW
HStem: -262 95<358.5 378.5> -155 95<358.5 378.5> -131 47<50 228 50 228>
VStem: 50 178<-131 -84 -131 -84> 258 47<-252 -70> 334 70<-231.5 -196.5 -231.5 -196.5 -124.5 -89.5>
AnchorPoint: "Anchor-6" 226 0 mark 0
AnchorPoint: "Anchor-0" 226 0 mark 0
LayerCount: 2
Fore
SplineSet
369 -155 m 0xcc
 348 -155 334 -144 334 -107 c 0
 334 -72 348 -60 369 -60 c 0
 388 -60 404 -72 404 -107 c 0
 404 -142 388 -155 369 -155 c 0xcc
305 -252 m 1xa8
 258 -252 l 1
 258 -70 l 1
 305 -70 l 1
 305 -252 l 1xa8
228 -131 m 1xbc
 50 -131 l 1
 50 -84 l 1
 228 -84 l 1
 228 -131 l 1xbc
369 -262 m 0
 348 -262 334 -251 334 -214 c 0
 334 -179 348 -167 369 -167 c 0
 388 -167 404 -179 404 -214 c 0
 404 -249 388 -262 369 -262 c 0
EndSplineSet
Ligature2: "'ccmp' Glyph Composition/Decomposition lookup 2 subtable" uni05B2 uni200D uni05BD
EndChar

StartChar: uni05B3200D05BD
Encoding: 65539 -1 141
Width: 0
GlyphClass: 1
Flags: MW
HStem: -262 95<358.5 378.5> -252 182<258 305 258 305> -155 95<358.5 378.5> -131 47<50 116 50 228 163 163 163 228>
VStem: 116 47<-238 -131> 258 47<-252 -70> 334 70<-231.5 -196.5 -231.5 -196.5 -124.5 -89.5>
AnchorPoint: "Anchor-6" 226 0 mark 0
AnchorPoint: "Anchor-0" 226 0 mark 0
LayerCount: 2
Fore
SplineSet
369 -155 m 0xae
 348 -155 334 -144 334 -107 c 0
 334 -72 348 -60 369 -60 c 0
 388 -60 404 -72 404 -107 c 0
 404 -142 388 -155 369 -155 c 0xae
305 -252 m 1x4c
 258 -252 l 1
 258 -70 l 1
 305 -70 l 1
 305 -252 l 1x4c
163 -238 m 1
 116 -238 l 1
 116 -131 l 1
 50 -131 l 1
 50 -84 l 1
 228 -84 l 1
 228 -131 l 1
 163 -131 l 1x9e
 163 -238 l 1
369 -262 m 0
 348 -262 334 -251 334 -214 c 0
 334 -179 348 -167 369 -167 c 0
 388 -167 404 -179 404 -214 c 0
 404 -249 388 -262 369 -262 c 0
EndSplineSet
Ligature2: "'ccmp' Glyph Composition/Decomposition lookup 2 subtable" uni05B3 uni200D uni05BD
EndChar

StartChar: uni05B4.alt
Encoding: 65540 -1 142
Width: 0
GlyphClass: 4
Flags: MW
HStem: -155 95<73.5 93.5>
VStem: 49 70<-124.5 -89.5 -124.5 -89.5>
LayerCount: 2
Fore
SplineSet
84 -155 m 0
 63 -155 49 -144 49 -107 c 0
 49 -72 63 -60 84 -60 c 0
 103 -60 119 -72 119 -107 c 0
 119 -142 103 -155 84 -155 c 0
EndSplineSet
EndChar

StartChar: uni200D
Encoding: 8205 8205 143
Width: 0
GlyphClass: 2
Flags: MW
HStem: -45 724<-83 18 -83 -18>
VStem: -18 36<-45 533 -45 533>
LayerCount: 2
Fore
SplineSet
18 533 m 1
 18 -45 l 1
 -18 -45 l 1
 -18 533 l 1
 -83 467 l 1
 -107 491 l 1
 -23 573 l 1
 -107 655 l 1
 -83 679 l 1
 0 596 l 1
 83 679 l 1
 107 655 l 1
 23 573 l 1
 107 491 l 1
 83 467 l 1
 18 533 l 1
EndSplineSet
EndChar

StartChar: uni05DD05B4.alt
Encoding: 65541 -1 144
Width: 782
GlyphClass: 1
Flags: MW
HStem: -155 95<523 542.5 522.5 543.5> 0 132<55 464 168 464 168 587> 519 83<347 350>
VStem: 52 91 498 70<-124.5 -89.5 -124.5 -89.5>
AnchorPoint: "Anchor-4" 0 536 basechar 0
AnchorPoint: "Anchor-3" 321 536 basechar 0
AnchorPoint: "Anchor-2" 321 296 basechar 0
AnchorPoint: "Anchor-1" 70 0 basechar 0
AnchorPoint: "Anchor-0" 321 0 basechar 0
LayerCount: 2
Fore
SplineSet
55 0 m 1
 49 582 l 1
 350 602 l 2
 486 611 551 545 560 413 c 2
 587 0 l 1
 55 0 l 1
168 132 m 1
 464 132 l 1
 463 395 l 2
 462 488 420 526 347 519 c 2
 143 499 l 1
 168 132 l 1
534 -155 m 0
 512 -155 498 -144 498 -107 c 0
 498 -72 512 -60 533 -60 c 0
 552 -60 568 -72 568 -107 c 0
 568 -142 553 -155 534 -155 c 0
EndSplineSet
Ligature2: "Ligature Substitution lookup 0 subtable" uni05B4 uni05DD
EndChar

StartChar: uni0326
Encoding: 806 806 145
Width: 0
GlyphClass: 4
Flags: MW
HStem: -221 160<-23 -16 -64 64>
VStem: -64 128 -23 87<-70 -61>
AnchorPoint: "Anchor-6" 2 -221 basemark 0
AnchorPoint: "Anchor-6" 0 0 mark 0
AnchorPoint: "Anchor-0" 0 0 mark 0
LayerCount: 2
Fore
SplineSet
64 -61 m 1xa0
 64 -70 l 1
 56 -106 19 -179 -16 -221 c 1
 -64 -221 l 1
 -64 -209 l 1
 -49 -177 -27 -102 -23 -61 c 1
 64 -61 l 1xa0
EndSplineSet
EndChar

StartChar: uni0327
Encoding: 807 807 146
Width: 0
GlyphClass: 4
Flags: MW
HStem: -240 55<-54.5 -21 -54.5 1.5> -53 53<13 13>
VStem: 29 71<-157.5 -123.5>
AnchorPoint: "Anchor-6" 3 -240 basemark 0
AnchorPoint: "Anchor-6" 1 0 mark 0
AnchorPoint: "Anchor-0" 1 0 mark 0
LayerCount: 2
Fore
SplineSet
100 -139 m 0
 100 -203 51 -240 -48 -240 c 0
 -68 -240 -87 -238 -98 -235 c 1
 -98 -180 l 1
 -86 -183 -64 -185 -45 -185 c 0
 3 -185 29 -174 29 -141 c 0
 29 -106 -11 -93 -62 -86 c 1
 -19 0 l 1
 39 0 l 1
 13 -53 l 1
 62 -63 100 -88 100 -139 c 0
EndSplineSet
EndChar

StartChar: uni0328
Encoding: 808 808 147
Width: 0
GlyphClass: 4
Flags: MW
HStem: -220 59<21 34.5> 0 21G<58 58>
VStem: -82 72<-130.5 -97>
AnchorPoint: "Anchor-6" 0 -220 basemark 0
AnchorPoint: "Anchor-6" 1 0 mark 0
AnchorPoint: "Anchor-0" 1 0 mark 0
LayerCount: 2
Fore
SplineSet
-10 -116 m 0
 -10 -145 7 -161 35 -161 c 0
 58 -161 72 -156 83 -155 c 1
 83 -211 l 1
 64 -216 48 -220 21 -220 c 0
 -50 -220 -82 -185 -82 -126 c 0
 -82 -68 -30 -13 10 15 c 1
 58 0 l 1
 13 -43 -10 -75 -10 -116 c 0
EndSplineSet
EndChar
